<svg width="542" height="262" viewBox="0 0 542 262" fill="none" xmlns="http://www.w3.org/2000/svg">
<rect x="23" y="24" width="469" height="236" stroke="#1C1C1C" stroke-width="4"/>
<rect x="12" y="13" width="470" height="236" fill="#D4CDFF" stroke="#1C1C1C" stroke-width="4"/>
<rect x="2" y="2" width="469" height="236" fill="#D4CDFF" stroke="#1C1C1C" stroke-width="4"/>
<rect x="382" y="173" width="159" height="52" fill="#1C1C1C" stroke="#1C1C1C" stroke-width="2"/>
<rect x="377" y="168" width="159" height="52" fill="#1C1C1C" stroke="#D4CDFF" stroke-width="2"/>
<rect x="371" y="162" width="157" height="50" fill="#D4CDFF" stroke="#1C1C1C" stroke-width="4"/>
<rect x="2" y="2" width="469" height="31" stroke="#1C1C1C" stroke-width="4"/>
<path d="M18 14L26 21.5" stroke="black" stroke-width="2.5"/>
<path d="M18 21.5L26 14" stroke="black" stroke-width="2.5"/>
<path d="M389.56 181.808H391.744L394.976 188.504H394.832L398.064 181.808H400.176V192H398.64V183.48H398.888L395.4 190.792H394.4L390.928 183.52H391.08V192H389.56V181.808ZM401.886 192L405.374 181.808H407.254L410.638 192H409.038L408.246 189.568H404.31L403.486 192H401.886ZM404.694 188.4H407.87L406.286 183.64L404.694 188.4ZM412.346 192V181.808H415.994C417.183 181.808 418.087 182.091 418.706 182.656C419.33 183.216 419.642 183.955 419.642 184.872C419.642 185.779 419.33 186.512 418.706 187.072C418.087 187.632 417.183 187.912 415.994 187.912H413.866V192H412.346ZM417.97 192L415.146 187.312H416.786L419.946 192H417.97ZM413.866 186.872H415.858C416.583 186.872 417.135 186.699 417.514 186.352C417.892 186 418.082 185.547 418.082 184.992C418.082 184.421 417.903 183.968 417.546 183.632C417.194 183.291 416.676 183.12 415.994 183.12H413.866V186.872ZM420.657 183.12V181.808H428.689V183.12H425.089L425.433 182.768V192H423.913V182.768L424.249 183.12H420.657ZM430.1 192V181.808H431.62V192H430.1ZM434.477 181.808H436.213L441.149 189.712H441.029V181.808H442.549V192H440.933L435.757 183.744H435.997V192H434.477V181.808ZM450.619 181.808V190.672H455.011V192H449.099V181.808H450.619ZM456.499 192V181.808H462.899V183.12H458.019V186.224H462.611V187.536H458.019V190.672H462.899V192H456.499ZM465.431 192V181.808H469.375C470.138 181.808 470.77 181.931 471.271 182.176C471.778 182.421 472.157 182.747 472.407 183.152C472.658 183.557 472.783 184.003 472.783 184.488C472.783 185.069 472.621 185.571 472.295 185.992C471.975 186.413 471.506 186.704 470.887 186.864C471.293 186.933 471.65 187.08 471.959 187.304C472.269 187.523 472.511 187.795 472.687 188.12C472.869 188.445 472.959 188.805 472.959 189.2C472.959 189.536 472.901 189.869 472.783 190.2C472.666 190.531 472.471 190.832 472.199 191.104C471.927 191.376 471.562 191.595 471.103 191.76C470.645 191.92 470.071 192 469.383 192H465.431ZM466.951 190.672H469.351C470.045 190.672 470.546 190.528 470.855 190.24C471.17 189.952 471.327 189.579 471.327 189.12C471.327 188.656 471.162 188.283 470.831 188C470.501 187.717 470.007 187.576 469.351 187.576H466.951V190.672ZM466.951 183.12V186.256H469.319C469.911 186.256 470.375 186.115 470.711 185.832C471.053 185.549 471.223 185.157 471.223 184.656C471.223 184.181 471.058 183.808 470.727 183.536C470.402 183.259 469.938 183.12 469.335 183.12H466.951ZM476.836 181.808V190.672H481.228V192H475.316V181.808H476.836ZM481.565 192L485.053 181.808H486.933L490.317 192H488.717L487.925 189.568H483.989L483.165 192H481.565ZM484.373 188.4H487.549L485.965 183.64L484.373 188.4ZM492 181.808H493.736L498.672 189.712H498.552V181.808H500.072V192H498.456L493.28 183.744H493.52V192H492V181.808ZM506.572 192.208C505.67 192.208 504.892 191.989 504.236 191.552C503.585 191.109 503.081 190.488 502.724 189.688C502.366 188.883 502.188 187.939 502.188 186.856C502.188 185.715 502.377 184.757 502.756 183.984C503.134 183.205 503.654 182.619 504.316 182.224C504.982 181.824 505.734 181.624 506.572 181.624C507.697 181.624 508.593 181.904 509.26 182.464C509.926 183.019 510.369 183.741 510.588 184.632L508.964 184.944C508.772 184.352 508.468 183.88 508.052 183.528C507.636 183.171 507.142 182.992 506.572 182.992C506.07 182.992 505.612 183.136 505.196 183.424C504.78 183.712 504.446 184.144 504.196 184.72C503.945 185.291 503.82 186.003 503.82 186.856C503.82 187.645 503.924 188.339 504.132 188.936C504.34 189.528 504.646 189.989 505.052 190.32C505.457 190.651 505.964 190.816 506.572 190.816C507.313 190.816 507.897 190.619 508.324 190.224C508.75 189.824 508.964 189.304 508.964 188.664H510.604C510.604 189.411 510.436 190.048 510.1 190.576C509.769 191.099 509.302 191.501 508.7 191.784C508.097 192.067 507.388 192.208 506.572 192.208Z" fill="#1C1C1C"/>
<path d="M64.848 92.568V105.768H71.34V108H62.292V92.568H64.848ZM80.9239 108L80.5999 105.264V100.512C80.5999 99.632 80.4159 98.988 80.0479 98.58C79.6879 98.172 79.0999 97.968 78.2839 97.968C77.8199 97.968 77.4079 98.036 77.0479 98.172C76.6959 98.308 76.4199 98.512 76.2199 98.784C76.0279 99.048 75.9319 99.376 75.9319 99.768H73.1239C73.1239 98.896 73.3319 98.192 73.7479 97.656C74.1719 97.112 74.7679 96.716 75.5359 96.468C76.3119 96.212 77.2279 96.084 78.2839 96.084C79.2599 96.084 80.1119 96.244 80.8399 96.564C81.5679 96.876 82.1359 97.364 82.5439 98.028C82.9519 98.692 83.1559 99.548 83.1559 100.596V108H80.9239ZM77.0839 108.324C76.0999 108.324 75.2799 108.152 74.6239 107.808C73.9759 107.464 73.4879 107.012 73.1599 106.452C72.8319 105.892 72.6679 105.292 72.6679 104.652C72.6679 103.9 72.8599 103.276 73.2439 102.78C73.6359 102.284 74.1799 101.916 74.8759 101.676C75.5799 101.428 76.3959 101.304 77.3239 101.304C77.9559 101.304 78.5559 101.356 79.1239 101.46C79.6999 101.564 80.2719 101.7 80.8399 101.868V103.392C80.3839 103.232 79.8839 103.108 79.3399 103.02C78.7959 102.932 78.2919 102.888 77.8279 102.888C77.1239 102.888 76.5399 103.024 76.0759 103.296C75.6199 103.56 75.3919 104.012 75.3919 104.652C75.3919 105.116 75.5759 105.516 75.9439 105.852C76.3119 106.188 76.8959 106.356 77.6959 106.356C78.2959 106.356 78.8119 106.224 79.2439 105.96C79.6759 105.696 80.0079 105.364 80.2399 104.964C80.4799 104.564 80.5999 104.164 80.5999 103.764H81.2119C81.2119 104.58 81.0519 105.336 80.7319 106.032C80.4199 106.72 79.9559 107.276 79.3399 107.7C78.7239 108.116 77.9719 108.324 77.0839 108.324ZM94.1177 94.104C93.6137 94.104 93.2177 93.968 92.9297 93.696C92.6497 93.424 92.5097 93.052 92.5097 92.58C92.5097 92.124 92.6497 91.76 92.9297 91.488C93.2177 91.208 93.6137 91.068 94.1177 91.068C94.6137 91.068 95.0057 91.208 95.2937 91.488C95.5817 91.76 95.7257 92.124 95.7257 92.58C95.7257 93.052 95.5817 93.424 95.2937 93.696C95.0057 93.968 94.6137 94.104 94.1177 94.104ZM92.8457 108V96.372H95.4017V108H92.8457ZM107.986 108V101.208C107.986 100.272 107.762 99.568 107.314 99.096C106.866 98.616 106.27 98.376 105.526 98.376C104.926 98.376 104.398 98.544 103.942 98.88C103.486 99.208 103.13 99.696 102.874 100.344C102.626 100.992 102.502 101.788 102.502 102.732H101.626C101.626 101.268 101.81 100.044 102.178 99.06C102.546 98.076 103.07 97.336 103.75 96.84C104.438 96.336 105.254 96.084 106.198 96.084C107.142 96.084 107.934 96.296 108.574 96.72C109.222 97.144 109.71 97.74 110.038 98.508C110.366 99.276 110.53 100.176 110.53 101.208V108H107.986ZM99.9458 108V96.408H102.166L102.502 98.808V108H99.9458ZM118.214 108.324C117.542 108.324 116.93 108.2 116.378 107.952C115.834 107.696 115.398 107.312 115.07 106.8C114.742 106.28 114.578 105.628 114.578 104.844V93.288H117.134V104.76C117.134 105.784 117.618 106.296 118.586 106.296C118.874 106.296 119.162 106.264 119.45 106.2C119.738 106.136 120.066 106.036 120.434 105.9L120.806 107.7C120.366 107.876 119.938 108.024 119.522 108.144C119.106 108.264 118.67 108.324 118.214 108.324ZM112.886 98.112V96.408H120.434V98.112H112.886ZM127.602 108.324C126.61 108.324 125.706 108.068 124.89 107.556C124.082 107.044 123.434 106.328 122.946 105.408C122.466 104.488 122.226 103.42 122.226 102.204C122.226 100.932 122.466 99.84 122.946 98.928C123.426 98.008 124.07 97.304 124.878 96.816C125.694 96.328 126.602 96.084 127.602 96.084C128.514 96.084 129.298 96.268 129.954 96.636C130.618 97.004 131.15 97.5 131.55 98.124C131.95 98.748 132.222 99.456 132.366 100.248C132.518 101.032 132.538 101.844 132.426 102.684H124.278V101.256H130.638L130.086 101.616C130.11 101.208 130.09 100.8 130.026 100.392C129.962 99.984 129.838 99.608 129.654 99.264C129.478 98.92 129.226 98.644 128.898 98.436C128.57 98.228 128.15 98.124 127.638 98.124C127.022 98.124 126.498 98.284 126.066 98.604C125.642 98.916 125.318 99.336 125.094 99.864C124.878 100.392 124.77 100.98 124.77 101.628V102.66C124.77 103.356 124.874 103.976 125.082 104.52C125.29 105.056 125.602 105.48 126.018 105.792C126.442 106.104 126.97 106.26 127.602 106.26C128.21 106.26 128.714 106.116 129.114 105.828C129.522 105.54 129.778 105.112 129.882 104.544H132.486C132.366 105.296 132.086 105.956 131.646 106.524C131.206 107.092 130.642 107.536 129.954 107.856C129.266 108.168 128.482 108.324 127.602 108.324ZM135.616 108V96.372H138.172V108H135.616ZM137.512 102.864C137.512 101.36 137.672 100.116 137.992 99.132C138.32 98.14 138.768 97.404 139.336 96.924C139.904 96.436 140.552 96.192 141.28 96.192C141.496 96.192 141.696 96.208 141.88 96.24C142.064 96.264 142.244 96.304 142.42 96.36L142.36 98.904C142.144 98.848 141.912 98.804 141.664 98.772C141.416 98.732 141.196 98.712 141.004 98.712C140.364 98.712 139.832 98.876 139.408 99.204C138.992 99.524 138.68 99.996 138.472 100.62C138.272 101.236 138.172 101.984 138.172 102.864H137.512ZM145.115 108V94.884C145.115 94.068 145.275 93.404 145.595 92.892C145.915 92.372 146.339 91.992 146.867 91.752C147.395 91.504 147.971 91.38 148.595 91.38C148.963 91.38 149.343 91.408 149.735 91.464C150.127 91.512 150.515 91.58 150.899 91.668L150.395 93.648C150.187 93.568 149.971 93.508 149.747 93.468C149.531 93.42 149.319 93.396 149.111 93.396C148.879 93.396 148.651 93.44 148.427 93.528C148.211 93.616 148.035 93.772 147.899 93.996C147.763 94.22 147.695 94.532 147.695 94.932V108H145.115ZM143.351 98.112V96.408H149.903V98.112H143.351ZM160.075 108L159.751 105.264V100.512C159.751 99.632 159.567 98.988 159.199 98.58C158.839 98.172 158.251 97.968 157.435 97.968C156.971 97.968 156.559 98.036 156.199 98.172C155.847 98.308 155.571 98.512 155.371 98.784C155.179 99.048 155.083 99.376 155.083 99.768H152.275C152.275 98.896 152.483 98.192 152.899 97.656C153.323 97.112 153.919 96.716 154.687 96.468C155.463 96.212 156.379 96.084 157.435 96.084C158.411 96.084 159.263 96.244 159.991 96.564C160.719 96.876 161.287 97.364 161.695 98.028C162.103 98.692 162.307 99.548 162.307 100.596V108H160.075ZM156.235 108.324C155.251 108.324 154.431 108.152 153.775 107.808C153.127 107.464 152.639 107.012 152.311 106.452C151.983 105.892 151.819 105.292 151.819 104.652C151.819 103.9 152.011 103.276 152.395 102.78C152.787 102.284 153.331 101.916 154.027 101.676C154.731 101.428 155.547 101.304 156.475 101.304C157.107 101.304 157.707 101.356 158.275 101.46C158.851 101.564 159.423 101.7 159.991 101.868V103.392C159.535 103.232 159.035 103.108 158.491 103.02C157.947 102.932 157.443 102.888 156.979 102.888C156.275 102.888 155.691 103.024 155.227 103.296C154.771 103.56 154.543 104.012 154.543 104.652C154.543 105.116 154.727 105.516 155.095 105.852C155.463 106.188 156.047 106.356 156.847 106.356C157.447 106.356 157.963 106.224 158.395 105.96C158.827 105.696 159.159 105.364 159.391 104.964C159.631 104.564 159.751 104.164 159.751 103.764H160.363C160.363 104.58 160.203 105.336 159.883 106.032C159.571 106.72 159.107 107.276 158.491 107.7C157.875 108.116 157.123 108.324 156.235 108.324ZM165.252 108V105.924L171.504 98.472H165.252V96.408H174.336V98.472L168.24 105.924H174.336V108H165.252ZM187.411 108.324C186.451 108.324 185.571 108.068 184.771 107.556C183.979 107.044 183.347 106.328 182.875 105.408C182.403 104.48 182.167 103.392 182.167 102.144C182.167 100.912 182.395 99.844 182.851 98.94C183.307 98.028 183.919 97.324 184.687 96.828C185.455 96.332 186.307 96.084 187.243 96.084C188.099 96.084 188.843 96.292 189.475 96.708C190.107 97.116 190.591 97.72 190.927 98.52C191.271 99.312 191.443 100.284 191.443 101.436H190.603C190.603 100.78 190.471 100.228 190.207 99.78C189.943 99.324 189.599 98.976 189.175 98.736C188.751 98.496 188.291 98.376 187.795 98.376C187.211 98.376 186.687 98.532 186.223 98.844C185.767 99.156 185.407 99.596 185.143 100.164C184.879 100.724 184.747 101.384 184.747 102.144C184.747 102.928 184.879 103.612 185.143 104.196C185.415 104.772 185.779 105.22 186.235 105.54C186.691 105.852 187.207 106.008 187.783 106.008C188.255 106.008 188.703 105.884 189.127 105.636C189.559 105.38 189.911 105.02 190.183 104.556C190.463 104.092 190.603 103.544 190.603 102.912H191.443C191.443 104.104 191.259 105.104 190.891 105.912C190.531 106.712 190.047 107.316 189.439 107.724C188.831 108.124 188.155 108.324 187.411 108.324ZM191.071 108L190.603 105.18V91.56H193.183V108H191.071ZM201.653 108.324C200.661 108.324 199.757 108.068 198.941 107.556C198.133 107.044 197.485 106.328 196.997 105.408C196.517 104.488 196.277 103.42 196.277 102.204C196.277 100.932 196.517 99.84 196.997 98.928C197.477 98.008 198.121 97.304 198.929 96.816C199.745 96.328 200.653 96.084 201.653 96.084C202.565 96.084 203.349 96.268 204.005 96.636C204.669 97.004 205.201 97.5 205.601 98.124C206.001 98.748 206.273 99.456 206.417 100.248C206.569 101.032 206.589 101.844 206.477 102.684H198.329V101.256H204.689L204.137 101.616C204.161 101.208 204.141 100.8 204.077 100.392C204.013 99.984 203.889 99.608 203.705 99.264C203.529 98.92 203.277 98.644 202.949 98.436C202.621 98.228 202.201 98.124 201.689 98.124C201.073 98.124 200.549 98.284 200.117 98.604C199.693 98.916 199.369 99.336 199.145 99.864C198.929 100.392 198.821 100.98 198.821 101.628V102.66C198.821 103.356 198.925 103.976 199.133 104.52C199.341 105.056 199.653 105.48 200.069 105.792C200.493 106.104 201.021 106.26 201.653 106.26C202.261 106.26 202.765 106.116 203.165 105.828C203.573 105.54 203.829 105.112 203.933 104.544H206.537C206.417 105.296 206.137 105.956 205.697 106.524C205.257 107.092 204.693 107.536 204.005 107.856C203.317 108.168 202.533 108.324 201.653 108.324ZM223.023 96.372H225.579V108H223.023V96.372ZM214.983 96.372H217.539V103.524C217.539 104.332 217.739 104.944 218.139 105.36C218.547 105.776 219.111 105.984 219.831 105.984C220.431 105.984 220.971 105.828 221.451 105.516C221.939 105.196 222.323 104.736 222.603 104.136C222.883 103.528 223.023 102.796 223.023 101.94H223.767C223.767 103.324 223.583 104.484 223.215 105.42C222.847 106.348 222.335 107.048 221.679 107.52C221.023 107.984 220.259 108.216 219.387 108.216C218.555 108.216 217.803 108.064 217.131 107.76C216.467 107.456 215.943 106.98 215.559 106.332C215.175 105.676 214.983 104.82 214.983 103.764V96.372ZM234.077 108.324C232.965 108.324 232.013 108.168 231.221 107.856C230.437 107.544 229.837 107.104 229.421 106.536C229.005 105.96 228.789 105.276 228.773 104.484H231.149C231.181 105.108 231.429 105.568 231.893 105.864C232.357 106.152 232.989 106.296 233.789 106.296C234.229 106.296 234.621 106.232 234.965 106.104C235.309 105.968 235.577 105.788 235.769 105.564C235.969 105.332 236.069 105.076 236.069 104.796C236.069 104.428 235.937 104.14 235.673 103.932C235.409 103.724 234.989 103.536 234.413 103.368L231.965 102.516C231.037 102.196 230.325 101.768 229.829 101.232C229.333 100.696 229.085 100.056 229.085 99.312C229.085 98.344 229.517 97.564 230.381 96.972C231.253 96.38 232.413 96.084 233.861 96.084C235.333 96.084 236.469 96.4 237.269 97.032C238.069 97.664 238.481 98.46 238.505 99.42H236.069C236.029 99.004 235.825 98.68 235.457 98.448C235.097 98.208 234.565 98.088 233.861 98.088C233.213 98.088 232.705 98.224 232.337 98.496C231.969 98.768 231.785 99.084 231.785 99.444C231.785 100.068 232.317 100.532 233.381 100.836L235.997 101.796C236.925 102.1 237.637 102.492 238.133 102.972C238.637 103.452 238.889 104.06 238.889 104.796C238.889 105.396 238.689 105.968 238.289 106.512C237.889 107.048 237.325 107.484 236.597 107.82C235.877 108.156 235.037 108.324 234.077 108.324ZM249.866 96.372H252.422V108H249.866V96.372ZM241.826 96.372H244.382V103.524C244.382 104.332 244.582 104.944 244.982 105.36C245.39 105.776 245.954 105.984 246.674 105.984C247.274 105.984 247.814 105.828 248.294 105.516C248.782 105.196 249.166 104.736 249.446 104.136C249.726 103.528 249.866 102.796 249.866 101.94H250.61C250.61 103.324 250.426 104.484 250.058 105.42C249.69 106.348 249.178 107.048 248.522 107.52C247.866 107.984 247.102 108.216 246.23 108.216C245.398 108.216 244.646 108.064 243.974 107.76C243.31 107.456 242.786 106.98 242.402 106.332C242.018 105.676 241.826 104.82 241.826 103.764V96.372ZM263.968 108L263.644 105.264V100.512C263.644 99.632 263.46 98.988 263.092 98.58C262.732 98.172 262.144 97.968 261.328 97.968C260.864 97.968 260.452 98.036 260.092 98.172C259.74 98.308 259.464 98.512 259.264 98.784C259.072 99.048 258.976 99.376 258.976 99.768H256.168C256.168 98.896 256.376 98.192 256.792 97.656C257.216 97.112 257.812 96.716 258.58 96.468C259.356 96.212 260.272 96.084 261.328 96.084C262.304 96.084 263.156 96.244 263.884 96.564C264.612 96.876 265.18 97.364 265.588 98.028C265.996 98.692 266.2 99.548 266.2 100.596V108H263.968ZM260.128 108.324C259.144 108.324 258.324 108.152 257.668 107.808C257.02 107.464 256.532 107.012 256.204 106.452C255.876 105.892 255.712 105.292 255.712 104.652C255.712 103.9 255.904 103.276 256.288 102.78C256.68 102.284 257.224 101.916 257.92 101.676C258.624 101.428 259.44 101.304 260.368 101.304C261 101.304 261.6 101.356 262.168 101.46C262.744 101.564 263.316 101.7 263.884 101.868V103.392C263.428 103.232 262.928 103.108 262.384 103.02C261.84 102.932 261.336 102.888 260.872 102.888C260.168 102.888 259.584 103.024 259.12 103.296C258.664 103.56 258.436 104.012 258.436 104.652C258.436 105.116 258.62 105.516 258.988 105.852C259.356 106.188 259.94 106.356 260.74 106.356C261.34 106.356 261.856 106.224 262.288 105.96C262.72 105.696 263.052 105.364 263.284 104.964C263.524 104.564 263.644 104.164 263.644 103.764H264.256C264.256 104.58 264.096 105.336 263.776 106.032C263.464 106.72 263 107.276 262.384 107.7C261.768 108.116 261.016 108.324 260.128 108.324ZM270.093 108V96.372H272.649V108H270.093ZM271.989 102.864C271.989 101.36 272.149 100.116 272.469 99.132C272.797 98.14 273.245 97.404 273.813 96.924C274.381 96.436 275.029 96.192 275.757 96.192C275.973 96.192 276.173 96.208 276.357 96.24C276.541 96.264 276.721 96.304 276.897 96.36L276.837 98.904C276.621 98.848 276.389 98.804 276.141 98.772C275.893 98.732 275.673 98.712 275.481 98.712C274.841 98.712 274.309 98.876 273.885 99.204C273.469 99.524 273.157 99.996 272.949 100.62C272.749 101.236 272.649 101.984 272.649 102.864H271.989ZM280.42 94.104C279.916 94.104 279.52 93.968 279.232 93.696C278.952 93.424 278.812 93.052 278.812 92.58C278.812 92.124 278.952 91.76 279.232 91.488C279.52 91.208 279.916 91.068 280.42 91.068C280.916 91.068 281.308 91.208 281.596 91.488C281.884 91.76 282.028 92.124 282.028 92.58C282.028 93.052 281.884 93.424 281.596 93.696C281.308 93.968 280.916 94.104 280.42 94.104ZM279.148 108V96.372H281.704V108H279.148ZM290.7 108.324C289.644 108.324 288.696 108.096 287.856 107.64C287.016 107.184 286.348 106.504 285.852 105.6C285.356 104.696 285.108 103.568 285.108 102.216C285.108 100.84 285.356 99.7 285.852 98.796C286.348 97.892 287.016 97.216 287.856 96.768C288.696 96.312 289.644 96.084 290.7 96.084C291.74 96.084 292.68 96.312 293.52 96.768C294.36 97.216 295.024 97.892 295.512 98.796C296.008 99.7 296.256 100.84 296.256 102.216C296.256 103.568 296.008 104.696 295.512 105.6C295.024 106.504 294.36 107.184 293.52 107.64C292.68 108.096 291.74 108.324 290.7 108.324ZM290.616 106.092C291.232 106.092 291.768 105.944 292.224 105.648C292.688 105.344 293.048 104.904 293.304 104.328C293.56 103.752 293.688 103.048 293.688 102.216C293.688 100.944 293.432 99.972 292.92 99.3C292.416 98.628 291.704 98.292 290.784 98.292C290.168 98.292 289.628 98.444 289.164 98.748C288.7 99.044 288.34 99.484 288.084 100.068C287.828 100.644 287.7 101.36 287.7 102.216C287.7 103.464 287.956 104.424 288.468 105.096C288.988 105.76 289.704 106.092 290.616 106.092ZM309.17 108.324C308.178 108.324 307.274 108.068 306.458 107.556C305.65 107.044 305.002 106.328 304.514 105.408C304.034 104.488 303.794 103.42 303.794 102.204C303.794 100.932 304.034 99.84 304.514 98.928C304.994 98.008 305.638 97.304 306.446 96.816C307.262 96.328 308.17 96.084 309.17 96.084C310.082 96.084 310.866 96.268 311.522 96.636C312.186 97.004 312.718 97.5 313.118 98.124C313.518 98.748 313.79 99.456 313.934 100.248C314.086 101.032 314.106 101.844 313.994 102.684H305.846V101.256H312.206L311.654 101.616C311.678 101.208 311.658 100.8 311.594 100.392C311.53 99.984 311.406 99.608 311.222 99.264C311.046 98.92 310.794 98.644 310.466 98.436C310.138 98.228 309.718 98.124 309.206 98.124C308.59 98.124 308.066 98.284 307.634 98.604C307.21 98.916 306.886 99.336 306.662 99.864C306.446 100.392 306.338 100.98 306.338 101.628V102.66C306.338 103.356 306.442 103.976 306.65 104.52C306.858 105.056 307.17 105.48 307.586 105.792C308.01 106.104 308.538 106.26 309.17 106.26C309.778 106.26 310.282 106.116 310.682 105.828C311.09 105.54 311.346 105.112 311.45 104.544H314.054C313.934 105.296 313.654 105.956 313.214 106.524C312.774 107.092 312.21 107.536 311.522 107.856C310.834 108.168 310.05 108.324 309.17 108.324ZM321.455 108.324C320.343 108.324 319.391 108.168 318.599 107.856C317.815 107.544 317.215 107.104 316.799 106.536C316.383 105.96 316.167 105.276 316.151 104.484H318.527C318.559 105.108 318.807 105.568 319.271 105.864C319.735 106.152 320.367 106.296 321.167 106.296C321.607 106.296 321.999 106.232 322.343 106.104C322.687 105.968 322.955 105.788 323.147 105.564C323.347 105.332 323.447 105.076 323.447 104.796C323.447 104.428 323.315 104.14 323.051 103.932C322.787 103.724 322.367 103.536 321.791 103.368L319.343 102.516C318.415 102.196 317.703 101.768 317.207 101.232C316.711 100.696 316.463 100.056 316.463 99.312C316.463 98.344 316.895 97.564 317.759 96.972C318.631 96.38 319.791 96.084 321.239 96.084C322.711 96.084 323.847 96.4 324.647 97.032C325.447 97.664 325.859 98.46 325.883 99.42H323.447C323.407 99.004 323.203 98.68 322.835 98.448C322.475 98.208 321.943 98.088 321.239 98.088C320.591 98.088 320.083 98.224 319.715 98.496C319.347 98.768 319.163 99.084 319.163 99.444C319.163 100.068 319.695 100.532 320.759 100.836L323.375 101.796C324.303 102.1 325.015 102.492 325.511 102.972C326.015 103.452 326.267 104.06 326.267 104.796C326.267 105.396 326.067 105.968 325.667 106.512C325.267 107.048 324.703 107.484 323.975 107.82C323.255 108.156 322.415 108.324 321.455 108.324ZM339.369 108.324C338.417 108.324 337.525 108.072 336.693 107.568C335.869 107.064 335.201 106.352 334.689 105.432C334.185 104.512 333.933 103.432 333.933 102.192C333.933 100.888 334.185 99.78 334.689 98.868C335.201 97.956 335.869 97.264 336.693 96.792C337.525 96.32 338.417 96.084 339.369 96.084C340.097 96.084 340.741 96.2 341.301 96.432C341.869 96.664 342.353 96.976 342.753 97.368C343.153 97.76 343.473 98.2 343.713 98.688C343.953 99.168 344.113 99.66 344.193 100.164L341.601 100.26C341.449 99.708 341.181 99.256 340.797 98.904C340.421 98.552 339.937 98.376 339.345 98.376C338.865 98.376 338.409 98.512 337.977 98.784C337.545 99.056 337.193 99.472 336.921 100.032C336.657 100.592 336.525 101.312 336.525 102.192C336.525 103.016 336.649 103.712 336.897 104.28C337.145 104.848 337.481 105.28 337.905 105.576C338.337 105.864 338.817 106.008 339.345 106.008C340.121 106.008 340.689 105.824 341.049 105.456C341.417 105.08 341.601 104.572 341.601 103.932H344.193C344.193 104.748 344.005 105.488 343.629 106.152C343.253 106.816 342.705 107.344 341.985 107.736C341.265 108.128 340.393 108.324 339.369 108.324ZM351.774 108.324C350.718 108.324 349.77 108.096 348.93 107.64C348.09 107.184 347.422 106.504 346.926 105.6C346.43 104.696 346.182 103.568 346.182 102.216C346.182 100.84 346.43 99.7 346.926 98.796C347.422 97.892 348.09 97.216 348.93 96.768C349.77 96.312 350.718 96.084 351.774 96.084C352.814 96.084 353.754 96.312 354.594 96.768C355.434 97.216 356.098 97.892 356.586 98.796C357.082 99.7 357.33 100.84 357.33 102.216C357.33 103.568 357.082 104.696 356.586 105.6C356.098 106.504 355.434 107.184 354.594 107.64C353.754 108.096 352.814 108.324 351.774 108.324ZM351.69 106.092C352.306 106.092 352.842 105.944 353.298 105.648C353.762 105.344 354.122 104.904 354.378 104.328C354.634 103.752 354.762 103.048 354.762 102.216C354.762 100.944 354.506 99.972 353.994 99.3C353.49 98.628 352.778 98.292 351.858 98.292C351.242 98.292 350.702 98.444 350.238 98.748C349.774 99.044 349.414 99.484 349.158 100.068C348.902 100.644 348.774 101.36 348.774 102.216C348.774 103.464 349.03 104.424 349.542 105.096C350.062 105.76 350.778 106.092 351.69 106.092ZM376.315 108V101.208C376.315 100.272 376.091 99.568 375.643 99.096C375.203 98.616 374.615 98.376 373.879 98.376C372.967 98.376 372.259 98.736 371.755 99.456C371.251 100.176 370.999 101.236 370.999 102.636H369.907C369.907 101.468 370.019 100.472 370.243 99.648C370.467 98.816 370.783 98.14 371.191 97.62C371.607 97.092 372.099 96.704 372.667 96.456C373.235 96.208 373.863 96.084 374.551 96.084C375.495 96.084 376.287 96.296 376.927 96.72C377.575 97.144 378.063 97.74 378.391 98.508C378.727 99.276 378.895 100.176 378.895 101.208V108H376.315ZM360.415 108V96.408H362.635L362.923 98.484C363.299 97.7 363.803 97.104 364.435 96.696C365.075 96.288 365.819 96.084 366.667 96.084C367.611 96.084 368.403 96.296 369.043 96.72C369.691 97.144 370.179 97.74 370.507 98.508C370.835 99.276 370.999 100.176 370.999 101.208V108H368.455V101.208C368.455 100.272 368.231 99.568 367.783 99.096C367.335 98.616 366.739 98.376 365.995 98.376C365.395 98.376 364.867 98.544 364.411 98.88C363.955 99.208 363.599 99.696 363.343 100.344C363.095 100.992 362.971 101.788 362.971 102.732V108H360.415ZM387.195 108.324C386.139 108.324 385.191 108.096 384.351 107.64C383.511 107.184 382.843 106.504 382.347 105.6C381.851 104.696 381.603 103.568 381.603 102.216C381.603 100.84 381.851 99.7 382.347 98.796C382.843 97.892 383.511 97.216 384.351 96.768C385.191 96.312 386.139 96.084 387.195 96.084C388.235 96.084 389.175 96.312 390.015 96.768C390.855 97.216 391.519 97.892 392.007 98.796C392.503 99.7 392.751 100.84 392.751 102.216C392.751 103.568 392.503 104.696 392.007 105.6C391.519 106.504 390.855 107.184 390.015 107.64C389.175 108.096 388.235 108.324 387.195 108.324ZM387.111 106.092C387.727 106.092 388.263 105.944 388.719 105.648C389.183 105.344 389.543 104.904 389.799 104.328C390.055 103.752 390.183 103.048 390.183 102.216C390.183 100.944 389.927 99.972 389.415 99.3C388.911 98.628 388.199 98.292 387.279 98.292C386.663 98.292 386.123 98.444 385.659 98.748C385.195 99.044 384.835 99.484 384.579 100.068C384.323 100.644 384.195 101.36 384.195 102.216C384.195 103.464 384.451 104.424 384.963 105.096C385.483 105.76 386.199 106.092 387.111 106.092ZM409.193 96.372H411.749V108H409.193V96.372ZM401.153 96.372H403.709V103.524C403.709 104.332 403.909 104.944 404.309 105.36C404.717 105.776 405.281 105.984 406.001 105.984C406.601 105.984 407.141 105.828 407.621 105.516C408.109 105.196 408.493 104.736 408.773 104.136C409.053 103.528 409.193 102.796 409.193 101.94H409.937C409.937 103.324 409.753 104.484 409.385 105.42C409.017 106.348 408.505 107.048 407.849 107.52C407.193 107.984 406.429 108.216 405.557 108.216C404.725 108.216 403.973 108.064 403.301 107.76C402.637 107.456 402.113 106.98 401.729 106.332C401.345 105.676 401.153 104.82 401.153 103.764V96.372ZM424.015 108V101.208C424.015 100.272 423.791 99.568 423.343 99.096C422.895 98.616 422.299 98.376 421.555 98.376C420.955 98.376 420.427 98.544 419.971 98.88C419.515 99.208 419.159 99.696 418.903 100.344C418.655 100.992 418.531 101.788 418.531 102.732H417.655C417.655 101.268 417.839 100.044 418.207 99.06C418.575 98.076 419.099 97.336 419.779 96.84C420.467 96.336 421.283 96.084 422.227 96.084C423.171 96.084 423.963 96.296 424.603 96.72C425.251 97.144 425.739 97.74 426.067 98.508C426.395 99.276 426.559 100.176 426.559 101.208V108H424.015ZM415.975 108V96.408H418.195L418.531 98.808V108H415.975ZM66.588 139.324C65.636 139.324 64.744 139.072 63.912 138.568C63.088 138.064 62.42 137.352 61.908 136.432C61.404 135.512 61.152 134.432 61.152 133.192C61.152 131.888 61.404 130.78 61.908 129.868C62.42 128.956 63.088 128.264 63.912 127.792C64.744 127.32 65.636 127.084 66.588 127.084C67.316 127.084 67.96 127.2 68.52 127.432C69.088 127.664 69.572 127.976 69.972 128.368C70.372 128.76 70.692 129.2 70.932 129.688C71.172 130.168 71.332 130.66 71.412 131.164L68.82 131.26C68.668 130.708 68.4 130.256 68.016 129.904C67.64 129.552 67.156 129.376 66.564 129.376C66.084 129.376 65.628 129.512 65.196 129.784C64.764 130.056 64.412 130.472 64.14 131.032C63.876 131.592 63.744 132.312 63.744 133.192C63.744 134.016 63.868 134.712 64.116 135.28C64.364 135.848 64.7 136.28 65.124 136.576C65.556 136.864 66.036 137.008 66.564 137.008C67.34 137.008 67.908 136.824 68.268 136.456C68.636 136.08 68.82 135.572 68.82 134.932H71.412C71.412 135.748 71.224 136.488 70.848 137.152C70.472 137.816 69.924 138.344 69.204 138.736C68.484 139.128 67.612 139.324 66.588 139.324ZM82.5814 139V132.208C82.5814 131.272 82.3574 130.568 81.9094 130.096C81.4614 129.616 80.8654 129.376 80.1214 129.376C79.5214 129.376 78.9934 129.544 78.5374 129.88C78.0814 130.208 77.7254 130.696 77.4694 131.344C77.2214 131.992 77.0974 132.788 77.0974 133.732H76.2214C76.2214 132.268 76.4054 131.044 76.7734 130.06C77.1414 129.076 77.6654 128.336 78.3454 127.84C79.0334 127.336 79.8494 127.084 80.7934 127.084C81.7374 127.084 82.5294 127.296 83.1694 127.72C83.8174 128.144 84.3054 128.74 84.6334 129.508C84.9614 130.276 85.1254 131.176 85.1254 132.208V139H82.5814ZM74.5414 139V122.56H77.0974V139H74.5414ZM90.4699 125.104C89.9659 125.104 89.5699 124.968 89.2819 124.696C89.0019 124.424 88.8619 124.052 88.8619 123.58C88.8619 123.124 89.0019 122.76 89.2819 122.488C89.5699 122.208 89.9659 122.068 90.4699 122.068C90.9659 122.068 91.3579 122.208 91.6459 122.488C91.9339 122.76 92.0779 123.124 92.0779 123.58C92.0779 124.052 91.9339 124.424 91.6459 124.696C91.3579 124.968 90.9659 125.104 90.4699 125.104ZM89.1979 139V127.372H91.7539V139H89.1979ZM100.57 139.324C99.4579 139.324 98.5059 139.168 97.7139 138.856C96.9299 138.544 96.3299 138.104 95.9139 137.536C95.4979 136.96 95.2819 136.276 95.2659 135.484H97.6419C97.6739 136.108 97.9219 136.568 98.3859 136.864C98.8499 137.152 99.4819 137.296 100.282 137.296C100.722 137.296 101.114 137.232 101.458 137.104C101.802 136.968 102.07 136.788 102.262 136.564C102.462 136.332 102.562 136.076 102.562 135.796C102.562 135.428 102.43 135.14 102.166 134.932C101.902 134.724 101.482 134.536 100.906 134.368L98.4579 133.516C97.5299 133.196 96.8179 132.768 96.3219 132.232C95.8259 131.696 95.5779 131.056 95.5779 130.312C95.5779 129.344 96.0099 128.564 96.8739 127.972C97.7459 127.38 98.9059 127.084 100.354 127.084C101.826 127.084 102.962 127.4 103.762 128.032C104.562 128.664 104.974 129.46 104.998 130.42H102.562C102.522 130.004 102.318 129.68 101.95 129.448C101.59 129.208 101.058 129.088 100.354 129.088C99.7059 129.088 99.1979 129.224 98.8299 129.496C98.4619 129.768 98.2779 130.084 98.2779 130.444C98.2779 131.068 98.8099 131.532 99.8739 131.836L102.49 132.796C103.418 133.1 104.13 133.492 104.626 133.972C105.13 134.452 105.382 135.06 105.382 135.796C105.382 136.396 105.182 136.968 104.782 137.512C104.382 138.048 103.818 138.484 103.09 138.82C102.37 139.156 101.53 139.324 100.57 139.324ZM112.41 139.324C111.738 139.324 111.126 139.2 110.574 138.952C110.03 138.696 109.594 138.312 109.266 137.8C108.938 137.28 108.774 136.628 108.774 135.844V124.288H111.33V135.76C111.33 136.784 111.814 137.296 112.782 137.296C113.07 137.296 113.358 137.264 113.646 137.2C113.934 137.136 114.262 137.036 114.63 136.9L115.002 138.7C114.562 138.876 114.134 139.024 113.718 139.144C113.302 139.264 112.866 139.324 112.41 139.324ZM107.082 129.112V127.408H114.63V129.112H107.082ZM121.798 139.324C120.806 139.324 119.902 139.068 119.086 138.556C118.278 138.044 117.63 137.328 117.142 136.408C116.662 135.488 116.422 134.42 116.422 133.204C116.422 131.932 116.662 130.84 117.142 129.928C117.622 129.008 118.266 128.304 119.074 127.816C119.89 127.328 120.798 127.084 121.798 127.084C122.71 127.084 123.494 127.268 124.15 127.636C124.814 128.004 125.346 128.5 125.746 129.124C126.146 129.748 126.418 130.456 126.562 131.248C126.714 132.032 126.734 132.844 126.622 133.684H118.474V132.256H124.834L124.282 132.616C124.306 132.208 124.286 131.8 124.222 131.392C124.158 130.984 124.034 130.608 123.85 130.264C123.674 129.92 123.422 129.644 123.094 129.436C122.766 129.228 122.346 129.124 121.834 129.124C121.218 129.124 120.694 129.284 120.262 129.604C119.838 129.916 119.514 130.336 119.29 130.864C119.074 131.392 118.966 131.98 118.966 132.628V133.66C118.966 134.356 119.07 134.976 119.278 135.52C119.486 136.056 119.798 136.48 120.214 136.792C120.638 137.104 121.166 137.26 121.798 137.26C122.406 137.26 122.91 137.116 123.31 136.828C123.718 136.54 123.974 136.112 124.078 135.544H126.682C126.562 136.296 126.282 136.956 125.842 137.524C125.402 138.092 124.838 138.536 124.15 138.856C123.462 139.168 122.678 139.324 121.798 139.324ZM128.132 137.5C128.132 137.004 128.3 136.588 128.636 136.252C128.98 135.908 129.412 135.736 129.932 135.736C130.46 135.736 130.9 135.908 131.252 136.252C131.612 136.588 131.792 137.004 131.792 137.5C131.792 137.988 131.612 138.396 131.252 138.724C130.9 139.052 130.46 139.216 129.932 139.216C129.412 139.216 128.98 139.052 128.636 138.724C128.3 138.388 128.132 137.98 128.132 137.5ZM145.187 139.324C144.131 139.324 143.159 139.14 142.271 138.772C141.383 138.396 140.663 137.832 140.111 137.08C139.567 136.328 139.275 135.376 139.235 134.224H141.743C141.743 134.856 141.899 135.376 142.211 135.784C142.523 136.192 142.939 136.496 143.459 136.696C143.979 136.888 144.547 136.984 145.163 136.984C145.787 136.984 146.335 136.896 146.807 136.72C147.287 136.544 147.659 136.3 147.923 135.988C148.195 135.676 148.331 135.316 148.331 134.908C148.331 134.348 148.159 133.908 147.815 133.588C147.479 133.26 146.955 132.972 146.243 132.724L143.291 131.584C142.075 131.12 141.147 130.584 140.507 129.976C139.867 129.368 139.547 128.52 139.547 127.432C139.547 126.2 140.031 125.2 140.999 124.432C141.975 123.656 143.339 123.268 145.091 123.268C146.771 123.268 148.075 123.66 149.003 124.444C149.931 125.228 150.459 126.308 150.587 127.684H148.079C147.967 127.044 147.671 126.536 147.191 126.16C146.719 125.776 146.019 125.584 145.091 125.584C144.235 125.584 143.563 125.768 143.075 126.136C142.587 126.496 142.343 126.952 142.343 127.504C142.343 127.976 142.495 128.348 142.799 128.62C143.111 128.892 143.591 129.148 144.239 129.388L147.563 130.636C148.699 131.06 149.575 131.608 150.191 132.28C150.815 132.952 151.127 133.8 151.127 134.824C151.127 135.72 150.895 136.508 150.431 137.188C149.975 137.86 149.303 138.384 148.415 138.76C147.535 139.136 146.459 139.324 145.187 139.324ZM156.13 125.104C155.626 125.104 155.23 124.968 154.942 124.696C154.662 124.424 154.522 124.052 154.522 123.58C154.522 123.124 154.662 122.76 154.942 122.488C155.23 122.208 155.626 122.068 156.13 122.068C156.626 122.068 157.018 122.208 157.306 122.488C157.594 122.76 157.738 123.124 157.738 123.58C157.738 124.052 157.594 124.424 157.306 124.696C157.018 124.968 156.626 125.104 156.13 125.104ZM154.858 139V127.372H157.414V139H154.858ZM167.551 139V122.56H170.107V139H167.551ZM181.659 139L181.335 136.264V131.512C181.335 130.632 181.151 129.988 180.783 129.58C180.423 129.172 179.835 128.968 179.019 128.968C178.555 128.968 178.143 129.036 177.783 129.172C177.431 129.308 177.155 129.512 176.955 129.784C176.763 130.048 176.667 130.376 176.667 130.768H173.859C173.859 129.896 174.067 129.192 174.483 128.656C174.907 128.112 175.503 127.716 176.271 127.468C177.047 127.212 177.963 127.084 179.019 127.084C179.995 127.084 180.847 127.244 181.575 127.564C182.303 127.876 182.871 128.364 183.279 129.028C183.687 129.692 183.891 130.548 183.891 131.596V139H181.659ZM177.819 139.324C176.835 139.324 176.015 139.152 175.359 138.808C174.711 138.464 174.223 138.012 173.895 137.452C173.567 136.892 173.403 136.292 173.403 135.652C173.403 134.9 173.595 134.276 173.979 133.78C174.371 133.284 174.915 132.916 175.611 132.676C176.315 132.428 177.131 132.304 178.059 132.304C178.691 132.304 179.291 132.356 179.859 132.46C180.435 132.564 181.007 132.7 181.575 132.868V134.392C181.119 134.232 180.619 134.108 180.075 134.02C179.531 133.932 179.027 133.888 178.563 133.888C177.859 133.888 177.275 134.024 176.811 134.296C176.355 134.56 176.127 135.012 176.127 135.652C176.127 136.116 176.311 136.516 176.679 136.852C177.047 137.188 177.631 137.356 178.431 137.356C179.031 137.356 179.547 137.224 179.979 136.96C180.411 136.696 180.743 136.364 180.975 135.964C181.215 135.564 181.335 135.164 181.335 134.764H181.947C181.947 135.58 181.787 136.336 181.467 137.032C181.155 137.72 180.691 138.276 180.075 138.7C179.459 139.116 178.707 139.324 177.819 139.324ZM197.193 139.324C196.521 139.324 195.909 139.2 195.357 138.952C194.813 138.696 194.377 138.312 194.049 137.8C193.721 137.28 193.557 136.628 193.557 135.844V124.288H196.113V135.76C196.113 136.784 196.597 137.296 197.565 137.296C197.853 137.296 198.141 137.264 198.429 137.2C198.717 137.136 199.045 137.036 199.413 136.9L199.785 138.7C199.345 138.876 198.917 139.024 198.501 139.144C198.085 139.264 197.649 139.324 197.193 139.324ZM191.865 129.112V127.408H199.413V129.112H191.865ZM203.821 125.104C203.317 125.104 202.921 124.968 202.633 124.696C202.353 124.424 202.213 124.052 202.213 123.58C202.213 123.124 202.353 122.76 202.633 122.488C202.921 122.208 203.317 122.068 203.821 122.068C204.317 122.068 204.709 122.208 204.997 122.488C205.285 122.76 205.429 123.124 205.429 123.58C205.429 124.052 205.285 124.424 204.997 124.696C204.709 124.968 204.317 125.104 203.821 125.104ZM202.549 139V127.372H205.105V139H202.549ZM213.885 139.324C212.893 139.324 211.989 139.068 211.173 138.556C210.365 138.044 209.717 137.328 209.229 136.408C208.749 135.488 208.509 134.42 208.509 133.204C208.509 131.932 208.749 130.84 209.229 129.928C209.709 129.008 210.353 128.304 211.161 127.816C211.977 127.328 212.885 127.084 213.885 127.084C214.797 127.084 215.581 127.268 216.237 127.636C216.901 128.004 217.433 128.5 217.833 129.124C218.233 129.748 218.505 130.456 218.649 131.248C218.801 132.032 218.821 132.844 218.709 133.684H210.561V132.256H216.921L216.369 132.616C216.393 132.208 216.373 131.8 216.309 131.392C216.245 130.984 216.121 130.608 215.937 130.264C215.761 129.92 215.509 129.644 215.181 129.436C214.853 129.228 214.433 129.124 213.921 129.124C213.305 129.124 212.781 129.284 212.349 129.604C211.925 129.916 211.601 130.336 211.377 130.864C211.161 131.392 211.053 131.98 211.053 132.628V133.66C211.053 134.356 211.157 134.976 211.365 135.52C211.573 136.056 211.885 136.48 212.301 136.792C212.725 137.104 213.253 137.26 213.885 137.26C214.493 137.26 214.997 137.116 215.397 136.828C215.805 136.54 216.061 136.112 216.165 135.544H218.769C218.649 136.296 218.369 136.956 217.929 137.524C217.489 138.092 216.925 138.536 216.237 138.856C215.549 139.168 214.765 139.324 213.885 139.324ZM229.939 139V132.208C229.939 131.272 229.715 130.568 229.267 130.096C228.819 129.616 228.223 129.376 227.479 129.376C226.879 129.376 226.351 129.544 225.895 129.88C225.439 130.208 225.083 130.696 224.827 131.344C224.579 131.992 224.455 132.788 224.455 133.732H223.579C223.579 132.268 223.763 131.044 224.131 130.06C224.499 129.076 225.023 128.336 225.703 127.84C226.391 127.336 227.207 127.084 228.151 127.084C229.095 127.084 229.887 127.296 230.527 127.72C231.175 128.144 231.663 128.74 231.991 129.508C232.319 130.276 232.483 131.176 232.483 132.208V139H229.939ZM221.899 139V127.408H224.119L224.455 129.808V139H221.899ZM240.587 139.324C239.595 139.324 238.691 139.068 237.875 138.556C237.067 138.044 236.419 137.328 235.931 136.408C235.451 135.488 235.211 134.42 235.211 133.204C235.211 131.932 235.451 130.84 235.931 129.928C236.411 129.008 237.055 128.304 237.863 127.816C238.679 127.328 239.587 127.084 240.587 127.084C241.499 127.084 242.283 127.268 242.939 127.636C243.603 128.004 244.135 128.5 244.535 129.124C244.935 129.748 245.207 130.456 245.351 131.248C245.503 132.032 245.523 132.844 245.411 133.684H237.263V132.256H243.623L243.071 132.616C243.095 132.208 243.075 131.8 243.011 131.392C242.947 130.984 242.823 130.608 242.639 130.264C242.463 129.92 242.211 129.644 241.883 129.436C241.555 129.228 241.135 129.124 240.623 129.124C240.007 129.124 239.483 129.284 239.051 129.604C238.627 129.916 238.303 130.336 238.079 130.864C237.863 131.392 237.755 131.98 237.755 132.628V133.66C237.755 134.356 237.859 134.976 238.067 135.52C238.275 136.056 238.587 136.48 239.003 136.792C239.427 137.104 239.955 137.26 240.587 137.26C241.195 137.26 241.699 137.116 242.099 136.828C242.507 136.54 242.763 136.112 242.867 135.544H245.471C245.351 136.296 245.071 136.956 244.631 137.524C244.191 138.092 243.627 138.536 242.939 138.856C242.251 139.168 241.467 139.324 240.587 139.324ZM252.872 139.324C251.76 139.324 250.808 139.168 250.016 138.856C249.232 138.544 248.632 138.104 248.216 137.536C247.8 136.96 247.584 136.276 247.568 135.484H249.944C249.976 136.108 250.224 136.568 250.688 136.864C251.152 137.152 251.784 137.296 252.584 137.296C253.024 137.296 253.416 137.232 253.76 137.104C254.104 136.968 254.372 136.788 254.564 136.564C254.764 136.332 254.864 136.076 254.864 135.796C254.864 135.428 254.732 135.14 254.468 134.932C254.204 134.724 253.784 134.536 253.208 134.368L250.76 133.516C249.832 133.196 249.12 132.768 248.624 132.232C248.128 131.696 247.88 131.056 247.88 130.312C247.88 129.344 248.312 128.564 249.176 127.972C250.048 127.38 251.208 127.084 252.656 127.084C254.128 127.084 255.264 127.4 256.064 128.032C256.864 128.664 257.276 129.46 257.3 130.42H254.864C254.824 130.004 254.62 129.68 254.252 129.448C253.892 129.208 253.36 129.088 252.656 129.088C252.008 129.088 251.5 129.224 251.132 129.496C250.764 129.768 250.58 130.084 250.58 130.444C250.58 131.068 251.112 131.532 252.176 131.836L254.792 132.796C255.72 133.1 256.432 133.492 256.928 133.972C257.432 134.452 257.684 135.06 257.684 135.796C257.684 136.396 257.484 136.968 257.084 137.512C256.684 138.048 256.12 138.484 255.392 138.82C254.672 139.156 253.832 139.324 252.872 139.324ZM270.726 139.324C269.79 139.324 268.91 139.08 268.086 138.592C267.27 138.104 266.61 137.404 266.106 136.492C265.602 135.58 265.35 134.48 265.35 133.192C265.35 131.912 265.598 130.82 266.094 129.916C266.598 129.004 267.246 128.304 268.038 127.816C268.838 127.328 269.694 127.084 270.606 127.084C271.366 127.084 272.062 127.272 272.694 127.648C273.326 128.024 273.83 128.6 274.206 129.376C274.59 130.152 274.782 131.136 274.782 132.328H273.798C273.798 131.696 273.67 131.164 273.414 130.732C273.166 130.292 272.83 129.956 272.406 129.724C271.99 129.492 271.534 129.376 271.038 129.376C270.446 129.376 269.918 129.528 269.454 129.832C268.99 130.136 268.622 130.576 268.35 131.152C268.078 131.72 267.942 132.4 267.942 133.192C267.942 134.048 268.094 134.76 268.398 135.328C268.71 135.888 269.106 136.308 269.586 136.588C270.066 136.868 270.562 137.008 271.074 137.008C271.538 137.008 271.978 136.904 272.394 136.696C272.81 136.48 273.146 136.172 273.402 135.772C273.666 135.372 273.798 134.884 273.798 134.308H274.35C274.35 135.3 274.226 136.172 273.978 136.924C273.73 137.676 273.338 138.264 272.802 138.688C272.266 139.112 271.574 139.324 270.726 139.324ZM277.242 144.988C275.994 144.668 275.106 144.168 274.578 143.488C274.058 142.808 273.798 141.864 273.798 140.656V130.228L274.686 127.408H276.342V140.836C276.342 141.332 276.39 141.72 276.486 142C276.59 142.28 276.762 142.5 277.002 142.66C277.242 142.82 277.574 142.968 277.998 143.104L277.242 144.988ZM288.355 127.372H290.911V139H288.355V127.372ZM280.315 127.372H282.871V134.524C282.871 135.332 283.071 135.944 283.471 136.36C283.879 136.776 284.443 136.984 285.163 136.984C285.763 136.984 286.303 136.828 286.783 136.516C287.271 136.196 287.655 135.736 287.935 135.136C288.215 134.528 288.355 133.796 288.355 132.94H289.099C289.099 134.324 288.915 135.484 288.547 136.42C288.179 137.348 287.667 138.048 287.011 138.52C286.355 138.984 285.591 139.216 284.719 139.216C283.887 139.216 283.135 139.064 282.463 138.76C281.799 138.456 281.275 137.98 280.891 137.332C280.507 136.676 280.315 135.82 280.315 134.764V127.372ZM299.373 139.324C298.381 139.324 297.477 139.068 296.661 138.556C295.853 138.044 295.205 137.328 294.717 136.408C294.237 135.488 293.997 134.42 293.997 133.204C293.997 131.932 294.237 130.84 294.717 129.928C295.197 129.008 295.841 128.304 296.649 127.816C297.465 127.328 298.373 127.084 299.373 127.084C300.285 127.084 301.069 127.268 301.725 127.636C302.389 128.004 302.921 128.5 303.321 129.124C303.721 129.748 303.993 130.456 304.137 131.248C304.289 132.032 304.309 132.844 304.197 133.684H296.049V132.256H302.409L301.857 132.616C301.881 132.208 301.861 131.8 301.797 131.392C301.733 130.984 301.609 130.608 301.425 130.264C301.249 129.92 300.997 129.644 300.669 129.436C300.341 129.228 299.921 129.124 299.409 129.124C298.793 129.124 298.269 129.284 297.837 129.604C297.413 129.916 297.089 130.336 296.865 130.864C296.649 131.392 296.541 131.98 296.541 132.628V133.66C296.541 134.356 296.645 134.976 296.853 135.52C297.061 136.056 297.373 136.48 297.789 136.792C298.213 137.104 298.741 137.26 299.373 137.26C299.981 137.26 300.485 137.116 300.885 136.828C301.293 136.54 301.549 136.112 301.653 135.544H304.257C304.137 136.296 303.857 136.956 303.417 137.524C302.977 138.092 302.413 138.536 301.725 138.856C301.037 139.168 300.253 139.324 299.373 139.324ZM317.216 139.324C316.224 139.324 315.32 139.068 314.504 138.556C313.696 138.044 313.048 137.328 312.56 136.408C312.08 135.488 311.84 134.42 311.84 133.204C311.84 131.932 312.08 130.84 312.56 129.928C313.04 129.008 313.684 128.304 314.492 127.816C315.308 127.328 316.216 127.084 317.216 127.084C318.128 127.084 318.912 127.268 319.568 127.636C320.232 128.004 320.764 128.5 321.164 129.124C321.564 129.748 321.836 130.456 321.98 131.248C322.132 132.032 322.152 132.844 322.04 133.684H313.892V132.256H320.252L319.7 132.616C319.724 132.208 319.704 131.8 319.64 131.392C319.576 130.984 319.452 130.608 319.268 130.264C319.092 129.92 318.84 129.644 318.512 129.436C318.184 129.228 317.764 129.124 317.252 129.124C316.636 129.124 316.112 129.284 315.68 129.604C315.256 129.916 314.932 130.336 314.708 130.864C314.492 131.392 314.384 131.98 314.384 132.628V133.66C314.384 134.356 314.488 134.976 314.696 135.52C314.904 136.056 315.216 136.48 315.632 136.792C316.056 137.104 316.584 137.26 317.216 137.26C317.824 137.26 318.328 137.116 318.728 136.828C319.136 136.54 319.392 136.112 319.496 135.544H322.1C321.98 136.296 321.7 136.956 321.26 137.524C320.82 138.092 320.256 138.536 319.568 138.856C318.88 139.168 318.096 139.324 317.216 139.324ZM323.393 139L327.869 133.216L323.393 127.372H326.525L329.501 131.284L332.345 127.372H335.465L331.001 133.216L335.453 139H332.345L329.333 135.076L326.525 139H323.393ZM343.505 139.324C342.649 139.324 341.917 139.14 341.309 138.772C340.701 138.396 340.237 137.836 339.917 137.092C339.597 136.348 339.437 135.42 339.437 134.308H340.409C340.409 134.884 340.537 135.372 340.793 135.772C341.049 136.172 341.385 136.48 341.801 136.696C342.225 136.904 342.673 137.008 343.145 137.008C343.649 137.008 344.141 136.868 344.621 136.588C345.101 136.308 345.497 135.888 345.809 135.328C346.121 134.76 346.277 134.048 346.277 133.192C346.277 132.4 346.141 131.72 345.869 131.152C345.605 130.576 345.237 130.136 344.765 129.832C344.301 129.528 343.777 129.376 343.193 129.376C342.697 129.376 342.233 129.492 341.801 129.724C341.377 129.956 341.037 130.292 340.781 130.732C340.533 131.164 340.409 131.696 340.409 132.328H339.437C339.437 131.136 339.625 130.152 340.001 129.376C340.377 128.6 340.881 128.024 341.513 127.648C342.145 127.272 342.841 127.084 343.601 127.084C344.513 127.084 345.369 127.328 346.169 127.816C346.969 128.304 347.617 129.004 348.113 129.916C348.617 130.82 348.869 131.912 348.869 133.192C348.869 134.48 348.617 135.58 348.113 136.492C347.609 137.404 346.949 138.104 346.133 138.592C345.317 139.08 344.441 139.324 343.505 139.324ZM337.853 144.676V127.408H339.953L340.409 130.228V144.676H337.853ZM351.954 139V122.56H354.51V139H351.954ZM360.219 125.104C359.715 125.104 359.319 124.968 359.031 124.696C358.751 124.424 358.611 124.052 358.611 123.58C358.611 123.124 358.751 122.76 359.031 122.488C359.319 122.208 359.715 122.068 360.219 122.068C360.715 122.068 361.107 122.208 361.395 122.488C361.683 122.76 361.827 123.124 361.827 123.58C361.827 124.052 361.683 124.424 361.395 124.696C361.107 124.968 360.715 125.104 360.219 125.104ZM358.947 139V127.372H361.503V139H358.947ZM370.343 139.324C369.391 139.324 368.499 139.072 367.667 138.568C366.843 138.064 366.175 137.352 365.663 136.432C365.159 135.512 364.907 134.432 364.907 133.192C364.907 131.888 365.159 130.78 365.663 129.868C366.175 128.956 366.843 128.264 367.667 127.792C368.499 127.32 369.391 127.084 370.343 127.084C371.071 127.084 371.715 127.2 372.275 127.432C372.843 127.664 373.327 127.976 373.727 128.368C374.127 128.76 374.447 129.2 374.687 129.688C374.927 130.168 375.087 130.66 375.167 131.164L372.575 131.26C372.423 130.708 372.155 130.256 371.771 129.904C371.395 129.552 370.911 129.376 370.319 129.376C369.839 129.376 369.383 129.512 368.951 129.784C368.519 130.056 368.167 130.472 367.895 131.032C367.631 131.592 367.499 132.312 367.499 133.192C367.499 134.016 367.623 134.712 367.871 135.28C368.119 135.848 368.455 136.28 368.879 136.576C369.311 136.864 369.791 137.008 370.319 137.008C371.095 137.008 371.663 136.824 372.023 136.456C372.391 136.08 372.575 135.572 372.575 134.932H375.167C375.167 135.748 374.979 136.488 374.603 137.152C374.227 137.816 373.679 138.344 372.959 138.736C372.239 139.128 371.367 139.324 370.343 139.324ZM385.616 139L385.292 136.264V131.512C385.292 130.632 385.108 129.988 384.74 129.58C384.38 129.172 383.792 128.968 382.976 128.968C382.512 128.968 382.1 129.036 381.74 129.172C381.388 129.308 381.112 129.512 380.912 129.784C380.72 130.048 380.624 130.376 380.624 130.768H377.816C377.816 129.896 378.024 129.192 378.44 128.656C378.864 128.112 379.46 127.716 380.228 127.468C381.004 127.212 381.92 127.084 382.976 127.084C383.952 127.084 384.804 127.244 385.532 127.564C386.26 127.876 386.828 128.364 387.236 129.028C387.644 129.692 387.848 130.548 387.848 131.596V139H385.616ZM381.776 139.324C380.792 139.324 379.972 139.152 379.316 138.808C378.668 138.464 378.18 138.012 377.852 137.452C377.524 136.892 377.36 136.292 377.36 135.652C377.36 134.9 377.552 134.276 377.936 133.78C378.328 133.284 378.872 132.916 379.568 132.676C380.272 132.428 381.088 132.304 382.016 132.304C382.648 132.304 383.248 132.356 383.816 132.46C384.392 132.564 384.964 132.7 385.532 132.868V134.392C385.076 134.232 384.576 134.108 384.032 134.02C383.488 133.932 382.984 133.888 382.52 133.888C381.816 133.888 381.232 134.024 380.768 134.296C380.312 134.56 380.084 135.012 380.084 135.652C380.084 136.116 380.268 136.516 380.636 136.852C381.004 137.188 381.588 137.356 382.388 137.356C382.988 137.356 383.504 137.224 383.936 136.96C384.368 136.696 384.7 136.364 384.932 135.964C385.172 135.564 385.292 135.164 385.292 134.764H385.904C385.904 135.58 385.744 136.336 385.424 137.032C385.112 137.72 384.648 138.276 384.032 138.7C383.416 139.116 382.664 139.324 381.776 139.324ZM391.741 139V127.372H394.297V139H391.741ZM393.637 133.864C393.637 132.36 393.797 131.116 394.117 130.132C394.445 129.14 394.893 128.404 395.461 127.924C396.029 127.436 396.677 127.192 397.405 127.192C397.621 127.192 397.821 127.208 398.005 127.24C398.189 127.264 398.369 127.304 398.545 127.36L398.485 129.904C398.269 129.848 398.037 129.804 397.789 129.772C397.541 129.732 397.321 129.712 397.129 129.712C396.489 129.712 395.957 129.876 395.533 130.204C395.117 130.524 394.805 130.996 394.597 131.62C394.397 132.236 394.297 132.984 394.297 133.864H393.637ZM400.808 142.084L398.912 141.124C399.424 140.868 399.868 140.576 400.244 140.248C400.628 139.928 400.88 139.552 401 139.12C400.584 139.048 400.228 138.884 399.932 138.628C399.644 138.364 399.5 138.02 399.5 137.596C399.5 137.156 399.664 136.784 399.992 136.48C400.328 136.176 400.756 136.024 401.276 136.024C401.916 136.024 402.424 136.256 402.8 136.72C403.176 137.176 403.364 137.716 403.364 138.34C403.364 139.06 403.14 139.76 402.692 140.44C402.244 141.128 401.616 141.676 400.808 142.084ZM66.528 170.324C65.536 170.324 64.632 170.068 63.816 169.556C63.008 169.044 62.36 168.328 61.872 167.408C61.392 166.488 61.152 165.42 61.152 164.204C61.152 162.932 61.392 161.84 61.872 160.928C62.352 160.008 62.996 159.304 63.804 158.816C64.62 158.328 65.528 158.084 66.528 158.084C67.44 158.084 68.224 158.268 68.88 158.636C69.544 159.004 70.076 159.5 70.476 160.124C70.876 160.748 71.148 161.456 71.292 162.248C71.444 163.032 71.464 163.844 71.352 164.684H63.204V163.256H69.564L69.012 163.616C69.036 163.208 69.016 162.8 68.952 162.392C68.888 161.984 68.764 161.608 68.58 161.264C68.404 160.92 68.152 160.644 67.824 160.436C67.496 160.228 67.076 160.124 66.564 160.124C65.948 160.124 65.424 160.284 64.992 160.604C64.568 160.916 64.244 161.336 64.02 161.864C63.804 162.392 63.696 162.98 63.696 163.628V164.66C63.696 165.356 63.8 165.976 64.008 166.52C64.216 167.056 64.528 167.48 64.944 167.792C65.368 168.104 65.896 168.26 66.528 168.26C67.136 168.26 67.64 168.116 68.04 167.828C68.448 167.54 68.704 167.112 68.808 166.544H71.412C71.292 167.296 71.012 167.956 70.572 168.524C70.132 169.092 69.568 169.536 68.88 169.856C68.192 170.168 67.408 170.324 66.528 170.324ZM82.5814 170V163.208C82.5814 162.272 82.3574 161.568 81.9094 161.096C81.4614 160.616 80.8654 160.376 80.1214 160.376C79.5214 160.376 78.9934 160.544 78.5374 160.88C78.0814 161.208 77.7254 161.696 77.4694 162.344C77.2214 162.992 77.0974 163.788 77.0974 164.732H76.2214C76.2214 163.268 76.4054 162.044 76.7734 161.06C77.1414 160.076 77.6654 159.336 78.3454 158.84C79.0334 158.336 79.8494 158.084 80.7934 158.084C81.7374 158.084 82.5294 158.296 83.1694 158.72C83.8174 159.144 84.3054 159.74 84.6334 160.508C84.9614 161.276 85.1254 162.176 85.1254 163.208V170H82.5814ZM74.5414 170V158.408H76.7614L77.0974 160.808V170H74.5414ZM92.8099 170.324C92.1379 170.324 91.5259 170.2 90.9739 169.952C90.4299 169.696 89.9939 169.312 89.6659 168.8C89.3379 168.28 89.1739 167.628 89.1739 166.844V155.288H91.7299V166.76C91.7299 167.784 92.2139 168.296 93.1819 168.296C93.4699 168.296 93.7579 168.264 94.0459 168.2C94.3339 168.136 94.6619 168.036 95.0299 167.9L95.4019 169.7C94.9619 169.876 94.5339 170.024 94.1179 170.144C93.7019 170.264 93.2659 170.324 92.8099 170.324ZM87.4819 160.112V158.408H95.0299V160.112H87.4819ZM102.414 170.324C101.358 170.324 100.41 170.096 99.57 169.64C98.73 169.184 98.062 168.504 97.566 167.6C97.07 166.696 96.822 165.568 96.822 164.216C96.822 162.84 97.07 161.7 97.566 160.796C98.062 159.892 98.73 159.216 99.57 158.768C100.41 158.312 101.358 158.084 102.414 158.084C103.454 158.084 104.394 158.312 105.234 158.768C106.074 159.216 106.738 159.892 107.226 160.796C107.722 161.7 107.97 162.84 107.97 164.216C107.97 165.568 107.722 166.696 107.226 167.6C106.738 168.504 106.074 169.184 105.234 169.64C104.394 170.096 103.454 170.324 102.414 170.324ZM102.33 168.092C102.946 168.092 103.482 167.944 103.938 167.648C104.402 167.344 104.762 166.904 105.018 166.328C105.274 165.752 105.402 165.048 105.402 164.216C105.402 162.944 105.146 161.972 104.634 161.3C104.13 160.628 103.418 160.292 102.498 160.292C101.882 160.292 101.342 160.444 100.878 160.748C100.414 161.044 100.054 161.484 99.798 162.068C99.542 162.644 99.414 163.36 99.414 164.216C99.414 165.464 99.67 166.424 100.182 167.096C100.702 167.76 101.418 168.092 102.33 168.092ZM119.095 170V163.208C119.095 162.272 118.871 161.568 118.423 161.096C117.975 160.616 117.379 160.376 116.635 160.376C116.035 160.376 115.507 160.544 115.051 160.88C114.595 161.208 114.239 161.696 113.983 162.344C113.735 162.992 113.611 163.788 113.611 164.732H112.735C112.735 163.268 112.919 162.044 113.287 161.06C113.655 160.076 114.179 159.336 114.859 158.84C115.547 158.336 116.363 158.084 117.307 158.084C118.251 158.084 119.043 158.296 119.683 158.72C120.331 159.144 120.819 159.74 121.147 160.508C121.475 161.276 121.639 162.176 121.639 163.208V170H119.095ZM111.055 170V158.408H113.275L113.611 160.808V170H111.055ZM129.804 170.324C128.852 170.324 127.96 170.072 127.128 169.568C126.304 169.064 125.636 168.352 125.124 167.432C124.62 166.512 124.368 165.432 124.368 164.192C124.368 162.888 124.62 161.78 125.124 160.868C125.636 159.956 126.304 159.264 127.128 158.792C127.96 158.32 128.852 158.084 129.804 158.084C130.532 158.084 131.176 158.2 131.736 158.432C132.304 158.664 132.788 158.976 133.188 159.368C133.588 159.76 133.908 160.2 134.148 160.688C134.388 161.168 134.548 161.66 134.628 162.164L132.036 162.26C131.884 161.708 131.616 161.256 131.232 160.904C130.856 160.552 130.372 160.376 129.78 160.376C129.3 160.376 128.844 160.512 128.412 160.784C127.98 161.056 127.628 161.472 127.356 162.032C127.092 162.592 126.96 163.312 126.96 164.192C126.96 165.016 127.084 165.712 127.332 166.28C127.58 166.848 127.916 167.28 128.34 167.576C128.772 167.864 129.252 168.008 129.78 168.008C130.556 168.008 131.124 167.824 131.484 167.456C131.852 167.08 132.036 166.572 132.036 165.932H134.628C134.628 166.748 134.44 167.488 134.064 168.152C133.688 168.816 133.14 169.344 132.42 169.736C131.7 170.128 130.828 170.324 129.804 170.324ZM141.993 170.324C141.001 170.324 140.097 170.068 139.281 169.556C138.473 169.044 137.825 168.328 137.337 167.408C136.857 166.488 136.617 165.42 136.617 164.204C136.617 162.932 136.857 161.84 137.337 160.928C137.817 160.008 138.461 159.304 139.269 158.816C140.085 158.328 140.993 158.084 141.993 158.084C142.905 158.084 143.689 158.268 144.345 158.636C145.009 159.004 145.541 159.5 145.941 160.124C146.341 160.748 146.613 161.456 146.757 162.248C146.909 163.032 146.929 163.844 146.817 164.684H138.669V163.256H145.029L144.477 163.616C144.501 163.208 144.481 162.8 144.417 162.392C144.353 161.984 144.229 161.608 144.045 161.264C143.869 160.92 143.617 160.644 143.289 160.436C142.961 160.228 142.541 160.124 142.029 160.124C141.413 160.124 140.889 160.284 140.457 160.604C140.033 160.916 139.709 161.336 139.485 161.864C139.269 162.392 139.161 162.98 139.161 163.628V164.66C139.161 165.356 139.265 165.976 139.473 166.52C139.681 167.056 139.993 167.48 140.409 167.792C140.833 168.104 141.361 168.26 141.993 168.26C142.601 168.26 143.105 168.116 143.505 167.828C143.913 167.54 144.169 167.112 144.273 166.544H146.877C146.757 167.296 146.477 167.956 146.037 168.524C145.597 169.092 145.033 169.536 144.345 169.856C143.657 170.168 142.873 170.324 141.993 170.324ZM154.278 170.324C153.166 170.324 152.214 170.168 151.422 169.856C150.638 169.544 150.038 169.104 149.622 168.536C149.206 167.96 148.99 167.276 148.974 166.484H151.35C151.382 167.108 151.63 167.568 152.094 167.864C152.558 168.152 153.19 168.296 153.99 168.296C154.43 168.296 154.822 168.232 155.166 168.104C155.51 167.968 155.778 167.788 155.97 167.564C156.17 167.332 156.27 167.076 156.27 166.796C156.27 166.428 156.138 166.14 155.874 165.932C155.61 165.724 155.19 165.536 154.614 165.368L152.166 164.516C151.238 164.196 150.526 163.768 150.03 163.232C149.534 162.696 149.286 162.056 149.286 161.312C149.286 160.344 149.718 159.564 150.582 158.972C151.454 158.38 152.614 158.084 154.062 158.084C155.534 158.084 156.67 158.4 157.47 159.032C158.27 159.664 158.682 160.46 158.706 161.42H156.27C156.23 161.004 156.026 160.68 155.658 160.448C155.298 160.208 154.766 160.088 154.062 160.088C153.414 160.088 152.906 160.224 152.538 160.496C152.17 160.768 151.986 161.084 151.986 161.444C151.986 162.068 152.518 162.532 153.582 162.836L156.198 163.796C157.126 164.1 157.838 164.492 158.334 164.972C158.838 165.452 159.09 166.06 159.09 166.796C159.09 167.396 158.89 167.968 158.49 168.512C158.09 169.048 157.526 169.484 156.798 169.82C156.078 170.156 155.238 170.324 154.278 170.324ZM175.936 170V163.208C175.936 162.272 175.712 161.568 175.264 161.096C174.816 160.616 174.22 160.376 173.476 160.376C172.876 160.376 172.348 160.544 171.892 160.88C171.436 161.208 171.08 161.696 170.824 162.344C170.576 162.992 170.452 163.788 170.452 164.732H169.576C169.576 163.268 169.76 162.044 170.128 161.06C170.496 160.076 171.02 159.336 171.7 158.84C172.388 158.336 173.204 158.084 174.148 158.084C175.092 158.084 175.884 158.296 176.524 158.72C177.172 159.144 177.66 159.74 177.988 160.508C178.316 161.276 178.48 162.176 178.48 163.208V170H175.936ZM167.896 170V158.408H170.116L170.452 160.808V170H167.896ZM186.8 170.324C185.744 170.324 184.796 170.096 183.956 169.64C183.116 169.184 182.448 168.504 181.952 167.6C181.456 166.696 181.208 165.568 181.208 164.216C181.208 162.84 181.456 161.7 181.952 160.796C182.448 159.892 183.116 159.216 183.956 158.768C184.796 158.312 185.744 158.084 186.8 158.084C187.84 158.084 188.78 158.312 189.62 158.768C190.46 159.216 191.124 159.892 191.612 160.796C192.108 161.7 192.356 162.84 192.356 164.216C192.356 165.568 192.108 166.696 191.612 167.6C191.124 168.504 190.46 169.184 189.62 169.64C188.78 170.096 187.84 170.324 186.8 170.324ZM186.716 168.092C187.332 168.092 187.868 167.944 188.324 167.648C188.788 167.344 189.148 166.904 189.404 166.328C189.66 165.752 189.788 165.048 189.788 164.216C189.788 162.944 189.532 161.972 189.02 161.3C188.516 160.628 187.804 160.292 186.884 160.292C186.268 160.292 185.728 160.444 185.264 160.748C184.8 161.044 184.44 161.484 184.184 162.068C183.928 162.644 183.8 163.36 183.8 164.216C183.8 165.464 184.056 166.424 184.568 167.096C185.088 167.76 185.804 168.092 186.716 168.092ZM205.27 170.324C204.278 170.324 203.374 170.068 202.558 169.556C201.75 169.044 201.102 168.328 200.614 167.408C200.134 166.488 199.894 165.42 199.894 164.204C199.894 162.932 200.134 161.84 200.614 160.928C201.094 160.008 201.738 159.304 202.546 158.816C203.362 158.328 204.27 158.084 205.27 158.084C206.182 158.084 206.966 158.268 207.622 158.636C208.286 159.004 208.818 159.5 209.218 160.124C209.618 160.748 209.89 161.456 210.034 162.248C210.186 163.032 210.206 163.844 210.094 164.684H201.946V163.256H208.306L207.754 163.616C207.778 163.208 207.758 162.8 207.694 162.392C207.63 161.984 207.506 161.608 207.322 161.264C207.146 160.92 206.894 160.644 206.566 160.436C206.238 160.228 205.818 160.124 205.306 160.124C204.69 160.124 204.166 160.284 203.734 160.604C203.31 160.916 202.986 161.336 202.762 161.864C202.546 162.392 202.438 162.98 202.438 163.628V164.66C202.438 165.356 202.542 165.976 202.75 166.52C202.958 167.056 203.27 167.48 203.686 167.792C204.11 168.104 204.638 168.26 205.27 168.26C205.878 168.26 206.382 168.116 206.782 167.828C207.19 167.54 207.446 167.112 207.55 166.544H210.154C210.034 167.296 209.754 167.956 209.314 168.524C208.874 169.092 208.31 169.536 207.622 169.856C206.934 170.168 206.15 170.324 205.27 170.324ZM217.556 170.324C216.444 170.324 215.492 170.168 214.7 169.856C213.916 169.544 213.316 169.104 212.9 168.536C212.484 167.96 212.268 167.276 212.252 166.484H214.628C214.66 167.108 214.908 167.568 215.372 167.864C215.836 168.152 216.468 168.296 217.268 168.296C217.708 168.296 218.1 168.232 218.444 168.104C218.788 167.968 219.056 167.788 219.248 167.564C219.448 167.332 219.548 167.076 219.548 166.796C219.548 166.428 219.416 166.14 219.152 165.932C218.888 165.724 218.468 165.536 217.892 165.368L215.444 164.516C214.516 164.196 213.804 163.768 213.308 163.232C212.812 162.696 212.564 162.056 212.564 161.312C212.564 160.344 212.996 159.564 213.86 158.972C214.732 158.38 215.892 158.084 217.34 158.084C218.812 158.084 219.948 158.4 220.748 159.032C221.548 159.664 221.96 160.46 221.984 161.42H219.548C219.508 161.004 219.304 160.68 218.936 160.448C218.576 160.208 218.044 160.088 217.34 160.088C216.692 160.088 216.184 160.224 215.816 160.496C215.448 160.768 215.264 161.084 215.264 161.444C215.264 162.068 215.796 162.532 216.86 162.836L219.476 163.796C220.404 164.1 221.116 164.492 221.612 164.972C222.116 165.452 222.368 166.06 222.368 166.796C222.368 167.396 222.168 167.968 221.768 168.512C221.368 169.048 220.804 169.484 220.076 169.82C219.356 170.156 218.516 170.324 217.556 170.324ZM236.921 170.324C236.185 170.324 235.509 170.124 234.893 169.724C234.285 169.316 233.801 168.712 233.441 167.912C233.081 167.104 232.901 166.104 232.901 164.912H233.729C233.729 165.544 233.865 166.092 234.137 166.556C234.417 167.02 234.773 167.38 235.205 167.636C235.645 167.884 236.101 168.008 236.573 168.008C237.141 168.008 237.653 167.852 238.109 167.54C238.565 167.22 238.925 166.772 239.189 166.196C239.461 165.612 239.597 164.928 239.597 164.144C239.597 163.384 239.465 162.724 239.201 162.164C238.937 161.596 238.573 161.156 238.109 160.844C237.653 160.532 237.133 160.376 236.549 160.376C236.061 160.376 235.601 160.496 235.169 160.736C234.737 160.976 234.389 161.324 234.125 161.78C233.861 162.228 233.729 162.78 233.729 163.436H232.901C232.901 162.284 233.073 161.312 233.417 160.52C233.761 159.72 234.245 159.116 234.869 158.708C235.501 158.292 236.245 158.084 237.101 158.084C238.037 158.084 238.889 158.332 239.657 158.828C240.425 159.324 241.037 160.028 241.493 160.94C241.957 161.844 242.189 162.912 242.189 164.144C242.189 165.392 241.949 166.48 241.469 167.408C240.997 168.328 240.361 169.044 239.561 169.556C238.769 170.068 237.889 170.324 236.921 170.324ZM231.173 170V153.56H233.729V167.18L232.865 170H231.173ZM253.179 158.372H255.735V170H253.179V158.372ZM245.139 158.372H247.695V165.524C247.695 166.332 247.895 166.944 248.295 167.36C248.703 167.776 249.267 167.984 249.987 167.984C250.587 167.984 251.127 167.828 251.607 167.516C252.095 167.196 252.479 166.736 252.759 166.136C253.039 165.528 253.179 164.796 253.179 163.94H253.923C253.923 165.324 253.739 166.484 253.371 167.42C253.003 168.348 252.491 169.048 251.835 169.52C251.179 169.984 250.415 170.216 249.543 170.216C248.711 170.216 247.959 170.064 247.287 169.76C246.623 169.456 246.099 168.98 245.715 168.332C245.331 167.676 245.139 166.82 245.139 165.764V158.372ZM264.197 170.324C263.205 170.324 262.301 170.068 261.485 169.556C260.677 169.044 260.029 168.328 259.541 167.408C259.061 166.488 258.821 165.42 258.821 164.204C258.821 162.932 259.061 161.84 259.541 160.928C260.021 160.008 260.665 159.304 261.473 158.816C262.289 158.328 263.197 158.084 264.197 158.084C265.109 158.084 265.893 158.268 266.549 158.636C267.213 159.004 267.745 159.5 268.145 160.124C268.545 160.748 268.817 161.456 268.961 162.248C269.113 163.032 269.133 163.844 269.021 164.684H260.873V163.256H267.233L266.681 163.616C266.705 163.208 266.685 162.8 266.621 162.392C266.557 161.984 266.433 161.608 266.249 161.264C266.073 160.92 265.821 160.644 265.493 160.436C265.165 160.228 264.745 160.124 264.233 160.124C263.617 160.124 263.093 160.284 262.661 160.604C262.237 160.916 261.913 161.336 261.689 161.864C261.473 162.392 261.365 162.98 261.365 163.628V164.66C261.365 165.356 261.469 165.976 261.677 166.52C261.885 167.056 262.197 167.48 262.613 167.792C263.037 168.104 263.565 168.26 264.197 168.26C264.805 168.26 265.309 168.116 265.709 167.828C266.117 167.54 266.373 167.112 266.477 166.544H269.081C268.961 167.296 268.681 167.956 268.241 168.524C267.801 169.092 267.237 169.536 266.549 169.856C265.861 170.168 265.077 170.324 264.197 170.324ZM280.25 170V163.208C280.25 162.272 280.026 161.568 279.578 161.096C279.13 160.616 278.534 160.376 277.79 160.376C277.19 160.376 276.662 160.544 276.206 160.88C275.75 161.208 275.394 161.696 275.138 162.344C274.89 162.992 274.766 163.788 274.766 164.732H273.89C273.89 163.268 274.074 162.044 274.442 161.06C274.81 160.076 275.334 159.336 276.014 158.84C276.702 158.336 277.518 158.084 278.462 158.084C279.406 158.084 280.198 158.296 280.838 158.72C281.486 159.144 281.974 159.74 282.302 160.508C282.63 161.276 282.794 162.176 282.794 163.208V170H280.25ZM272.21 170V158.408H274.43L274.766 160.808V170H272.21ZM293.983 170L293.659 167.264V162.512C293.659 161.632 293.475 160.988 293.107 160.58C292.747 160.172 292.159 159.968 291.343 159.968C290.879 159.968 290.467 160.036 290.107 160.172C289.755 160.308 289.479 160.512 289.279 160.784C289.087 161.048 288.991 161.376 288.991 161.768H286.183C286.183 160.896 286.391 160.192 286.807 159.656C287.231 159.112 287.827 158.716 288.595 158.468C289.371 158.212 290.287 158.084 291.343 158.084C292.319 158.084 293.171 158.244 293.899 158.564C294.627 158.876 295.195 159.364 295.603 160.028C296.011 160.692 296.215 161.548 296.215 162.596V170H293.983ZM290.143 170.324C289.159 170.324 288.339 170.152 287.683 169.808C287.035 169.464 286.547 169.012 286.219 168.452C285.891 167.892 285.727 167.292 285.727 166.652C285.727 165.9 285.919 165.276 286.303 164.78C286.695 164.284 287.239 163.916 287.935 163.676C288.639 163.428 289.455 163.304 290.383 163.304C291.015 163.304 291.615 163.356 292.183 163.46C292.759 163.564 293.331 163.7 293.899 163.868V165.392C293.443 165.232 292.943 165.108 292.399 165.02C291.855 164.932 291.351 164.888 290.887 164.888C290.183 164.888 289.599 165.024 289.135 165.296C288.679 165.56 288.451 166.012 288.451 166.652C288.451 167.116 288.635 167.516 289.003 167.852C289.371 168.188 289.955 168.356 290.755 168.356C291.355 168.356 291.871 168.224 292.303 167.96C292.735 167.696 293.067 167.364 293.299 166.964C293.539 166.564 293.659 166.164 293.659 165.764H294.271C294.271 166.58 294.111 167.336 293.791 168.032C293.479 168.72 293.015 169.276 292.399 169.7C291.783 170.116 291.031 170.324 290.143 170.324ZM298.428 168.5C298.428 168.004 298.596 167.588 298.932 167.252C299.276 166.908 299.708 166.736 300.228 166.736C300.756 166.736 301.196 166.908 301.548 167.252C301.908 167.588 302.088 168.004 302.088 168.5C302.088 168.988 301.908 169.396 301.548 169.724C301.196 170.052 300.756 170.216 300.228 170.216C299.708 170.216 299.276 170.052 298.932 169.724C298.596 169.388 298.428 168.98 298.428 168.5ZM309.674 160.628L307.886 159.632C308.39 159.384 308.834 159.096 309.218 158.768C309.602 158.44 309.858 158.06 309.986 157.628C309.546 157.564 309.182 157.404 308.894 157.148C308.606 156.884 308.462 156.54 308.462 156.116C308.462 155.66 308.634 155.284 308.978 154.988C309.322 154.684 309.75 154.532 310.262 154.532C310.694 154.532 311.062 154.644 311.366 154.868C311.678 155.084 311.914 155.372 312.074 155.732C312.234 156.092 312.314 156.488 312.314 156.92C312.314 157.656 312.074 158.352 311.594 159.008C311.114 159.664 310.474 160.204 309.674 160.628ZM305.006 160.628L303.218 159.632C303.722 159.384 304.166 159.096 304.55 158.768C304.934 158.44 305.19 158.06 305.318 157.628C304.878 157.564 304.514 157.404 304.226 157.148C303.938 156.884 303.794 156.54 303.794 156.116C303.794 155.66 303.966 155.284 304.31 154.988C304.654 154.684 305.082 154.532 305.594 154.532C306.026 154.532 306.394 154.644 306.698 154.868C307.01 155.084 307.246 155.372 307.406 155.732C307.566 156.092 307.646 156.488 307.646 156.92C307.646 157.656 307.406 158.352 306.926 159.008C306.446 159.664 305.806 160.204 305.006 160.628Z" fill="#1C1C1C"/>
<path d="M48.918 96.146C48.424 96.146 47.9907 96.016 47.618 95.756C47.2453 95.496 46.955 95.1537 46.747 94.729C46.5477 94.3043 46.448 93.8407 46.448 93.338C46.448 92.4887 46.734 91.6783 47.306 90.907C47.878 90.1357 48.6233 89.516 49.542 89.048L51.674 90.244C51.102 90.5127 50.5993 90.8333 50.166 91.206C49.7327 91.5787 49.4293 92.012 49.256 92.506C49.75 92.5753 50.166 92.7617 50.504 93.065C50.8507 93.3597 51.024 93.754 51.024 94.248C51.024 94.768 50.8247 95.2143 50.426 95.587C50.036 95.9597 49.5333 96.146 48.918 96.146ZM43.406 96.146C42.912 96.146 42.4787 96.016 42.106 95.756C41.7333 95.496 41.443 95.1537 41.235 94.729C41.0357 94.3043 40.936 93.8407 40.936 93.338C40.936 92.4887 41.222 91.6783 41.794 90.907C42.366 90.1357 43.1113 89.516 44.03 89.048L46.162 90.244C45.59 90.5127 45.0873 90.8333 44.654 91.206C44.2207 91.5787 43.9173 92.012 43.744 92.506C44.238 92.5753 44.654 92.7617 44.992 93.065C45.3387 93.3597 45.512 93.754 45.512 94.248C45.512 94.768 45.3127 95.2143 44.914 95.587C44.524 95.9597 44.0213 96.146 43.406 96.146Z" fill="#1C1C1C"/>
</svg>
