<svg width="526" height="477" viewBox="0 0 526 477" fill="none" xmlns="http://www.w3.org/2000/svg">
<g filter="url(#filter0_f_149_509)">
<ellipse cx="369.527" cy="429.447" rx="321.574" ry="3.5533" fill="black"/>
</g>
<g filter="url(#filter1_d_149_509)">
<path d="M80.6445 41C80.6445 25.536 93.1806 13 108.645 13H632.543C648.007 13 660.543 25.536 660.543 41V402.706C660.543 404.915 658.752 406.706 656.543 406.706H84.6445C82.4354 406.706 80.6445 404.915 80.6445 402.706V41Z" fill="#1A202C"/>
<path d="M81.6445 41C81.6445 26.0883 93.7328 14 108.645 14H632.543C647.455 14 659.543 26.0883 659.543 41V402.706C659.543 404.362 658.2 405.706 656.543 405.706H84.6445C82.9877 405.706 81.6445 404.362 81.6445 402.706V41Z" stroke="#4A5568" stroke-width="2"/>
</g>
<path d="M84.1973 38.5533C84.1973 26.403 94.047 16.5533 106.197 16.5533H634.989C647.139 16.5533 656.989 26.403 656.989 38.5533V391.782H84.1973V38.5533Z" fill="black"/>
<g filter="url(#filter2_d_149_509)">
<path d="M11 405.863C11 404.758 11.8954 403.863 13 403.863H725.345C726.45 403.863 727.345 404.758 727.345 405.863V416.655H11V405.863Z" fill="#A3ACB1"/>
<path d="M11 405.863C11 404.758 11.8954 403.863 13 403.863H725.345C726.45 403.863 727.345 404.758 727.345 405.863V416.655H11V405.863Z" fill="url(#paint0_linear_149_509)"/>
<path d="M11 416.655H727.345L724.207 417.288C698.174 422.538 671.684 425.183 645.127 425.183H88.6874C62.558 425.183 36.5071 422.323 11 416.655Z" fill="#647279"/>
<path d="M11 416.655H727.345L724.207 417.288C698.174 422.538 671.684 425.183 645.127 425.183H88.6874C62.558 425.183 36.5071 422.323 11 416.655Z" fill="url(#paint1_linear_149_509)"/>
<path fill-rule="evenodd" clip-rule="evenodd" d="M310.211 403.863C310.577 409.419 315.199 413.812 320.848 413.812H418.208C423.856 413.812 428.479 409.419 428.845 403.863H310.211Z" fill="#96A1A8"/>
<path fill-rule="evenodd" clip-rule="evenodd" d="M310.211 403.863C310.577 409.419 315.199 413.812 320.848 413.812H418.208C423.856 413.812 428.479 409.419 428.845 403.863H310.211Z" fill="url(#paint2_linear_149_509)"/>
</g>
<defs>
<filter id="filter0_f_149_509" x="3.95312" y="381.893" width="731.148" height="95.1066" filterUnits="userSpaceOnUse" color-interpolation-filters="sRGB">
<feFlood flood-opacity="0" result="BackgroundImageFix"/>
<feBlend mode="normal" in="SourceGraphic" in2="BackgroundImageFix" result="shape"/>
<feGaussianBlur stdDeviation="22" result="effect1_foregroundBlur_149_509"/>
</filter>
<filter id="filter1_d_149_509" x="58.6445" y="0" width="601.898" height="415.706" filterUnits="userSpaceOnUse" color-interpolation-filters="sRGB">
<feFlood flood-opacity="0" result="BackgroundImageFix"/>
<feColorMatrix in="SourceAlpha" type="matrix" values="0 0 0 0 0 0 0 0 0 0 0 0 0 0 0 0 0 0 127 0" result="hardAlpha"/>
<feOffset dx="-11" dy="-2"/>
<feGaussianBlur stdDeviation="5.5"/>
<feComposite in2="hardAlpha" operator="out"/>
<feColorMatrix type="matrix" values="0 0 0 0 0.705882 0 0 0 0 0.505882 0 0 0 0 0.494118 0 0 0 0.25 0"/>
<feBlend mode="normal" in2="BackgroundImageFix" result="effect1_dropShadow_149_509"/>
<feBlend mode="normal" in="SourceGraphic" in2="effect1_dropShadow_149_509" result="shape"/>
</filter>
<filter id="filter2_d_149_509" x="0" y="396.863" width="738.344" height="43.3198" filterUnits="userSpaceOnUse" color-interpolation-filters="sRGB">
<feFlood flood-opacity="0" result="BackgroundImageFix"/>
<feColorMatrix in="SourceAlpha" type="matrix" values="0 0 0 0 0 0 0 0 0 0 0 0 0 0 0 0 0 0 127 0" result="hardAlpha"/>
<feOffset dy="4"/>
<feGaussianBlur stdDeviation="5.5"/>
<feComposite in2="hardAlpha" operator="out"/>
<feColorMatrix type="matrix" values="0 0 0 0 0.704167 0 0 0 0 0.505957 0 0 0 0 0.492917 0 0 0 1 0"/>
<feBlend mode="normal" in2="BackgroundImageFix" result="effect1_dropShadow_149_509"/>
<feBlend mode="normal" in="SourceGraphic" in2="effect1_dropShadow_149_509" result="shape"/>
</filter>
<linearGradient id="paint0_linear_149_509" x1="11" y1="410.259" x2="727.345" y2="410.259" gradientUnits="userSpaceOnUse">
<stop stop-color="#0D1012"/>
<stop offset="0.0295345" stop-color="#CAD4DB"/>
<stop offset="0.0625" stop-color="#242729"/>
<stop offset="0.133609" stop-color="#A3ACB1"/>
<stop offset="0.865967" stop-color="#A3ACB1"/>
<stop offset="0.941937" stop-color="#242729"/>
<stop offset="0.971275" stop-color="#CAD4DB"/>
<stop offset="0.996436" stop-color="#0D1012"/>
</linearGradient>
<linearGradient id="paint1_linear_149_509" x1="369.173" y1="416.655" x2="369.173" y2="425.183" gradientUnits="userSpaceOnUse">
<stop stop-color="#7A7F83"/>
<stop offset="1" stop-color="#0B0B0E"/>
</linearGradient>
<linearGradient id="paint2_linear_149_509" x1="321.914" y1="409.904" x2="419.274" y2="409.904" gradientUnits="userSpaceOnUse">
<stop stop-color="#3C3C3C"/>
<stop offset="0.317518" stop-color="#3C3C3C" stop-opacity="0"/>
<stop offset="0.660584" stop-color="#3C3C3C" stop-opacity="0"/>
<stop offset="1" stop-color="#444444"/>
</linearGradient>
</defs>
</svg>
