<svg width="542" height="262" viewBox="0 0 542 262" fill="none" xmlns="http://www.w3.org/2000/svg">
<rect x="23" y="24" width="469" height="236" stroke="#1C1C1C" stroke-width="4"/>
<rect x="12" y="13" width="470" height="236" fill="#D4CDFF" stroke="#1C1C1C" stroke-width="4"/>
<rect x="2" y="2" width="469" height="236" fill="#D4CDFF" stroke="#1C1C1C" stroke-width="4"/>
<rect x="382" y="173" width="159" height="52" fill="#1C1C1C" stroke="#1C1C1C" stroke-width="2"/>
<rect x="377" y="168" width="159" height="52" fill="#1C1C1C" stroke="#D4CDFF" stroke-width="2"/>
<rect x="371" y="162" width="157" height="50" fill="#D4CDFF" stroke="#1C1C1C" stroke-width="4"/>
<rect x="2" y="2" width="469" height="31" stroke="#1C1C1C" stroke-width="4"/>
<path d="M18 14L26 21.5" stroke="black" stroke-width="2.5"/>
<path d="M18 21.5L26 14" stroke="black" stroke-width="2.5"/>
<path d="M389.56 181.808H391.744L394.976 188.504H394.832L398.064 181.808H400.176V192H398.64V183.48H398.888L395.4 190.792H394.4L390.928 183.52H391.08V192H389.56V181.808ZM401.886 192L405.374 181.808H407.254L410.638 192H409.038L408.246 189.568H404.31L403.486 192H401.886ZM404.694 188.4H407.87L406.286 183.64L404.694 188.4ZM412.346 192V181.808H415.994C417.183 181.808 418.087 182.091 418.706 182.656C419.33 183.216 419.642 183.955 419.642 184.872C419.642 185.779 419.33 186.512 418.706 187.072C418.087 187.632 417.183 187.912 415.994 187.912H413.866V192H412.346ZM417.97 192L415.146 187.312H416.786L419.946 192H417.97ZM413.866 186.872H415.858C416.583 186.872 417.135 186.699 417.514 186.352C417.892 186 418.082 185.547 418.082 184.992C418.082 184.421 417.903 183.968 417.546 183.632C417.194 183.291 416.676 183.12 415.994 183.12H413.866V186.872ZM420.657 183.12V181.808H428.689V183.12H425.089L425.433 182.768V192H423.913V182.768L424.249 183.12H420.657ZM430.1 192V181.808H431.62V192H430.1ZM434.477 181.808H436.213L441.149 189.712H441.029V181.808H442.549V192H440.933L435.757 183.744H435.997V192H434.477V181.808ZM450.619 181.808V190.672H455.011V192H449.099V181.808H450.619ZM456.499 192V181.808H462.899V183.12H458.019V186.224H462.611V187.536H458.019V190.672H462.899V192H456.499ZM465.431 192V181.808H469.375C470.138 181.808 470.77 181.931 471.271 182.176C471.778 182.421 472.157 182.747 472.407 183.152C472.658 183.557 472.783 184.003 472.783 184.488C472.783 185.069 472.621 185.571 472.295 185.992C471.975 186.413 471.506 186.704 470.887 186.864C471.293 186.933 471.65 187.08 471.959 187.304C472.269 187.523 472.511 187.795 472.687 188.12C472.869 188.445 472.959 188.805 472.959 189.2C472.959 189.536 472.901 189.869 472.783 190.2C472.666 190.531 472.471 190.832 472.199 191.104C471.927 191.376 471.562 191.595 471.103 191.76C470.645 191.92 470.071 192 469.383 192H465.431ZM466.951 190.672H469.351C470.045 190.672 470.546 190.528 470.855 190.24C471.17 189.952 471.327 189.579 471.327 189.12C471.327 188.656 471.162 188.283 470.831 188C470.501 187.717 470.007 187.576 469.351 187.576H466.951V190.672ZM466.951 183.12V186.256H469.319C469.911 186.256 470.375 186.115 470.711 185.832C471.053 185.549 471.223 185.157 471.223 184.656C471.223 184.181 471.058 183.808 470.727 183.536C470.402 183.259 469.938 183.12 469.335 183.12H466.951ZM476.836 181.808V190.672H481.228V192H475.316V181.808H476.836ZM481.565 192L485.053 181.808H486.933L490.317 192H488.717L487.925 189.568H483.989L483.165 192H481.565ZM484.373 188.4H487.549L485.965 183.64L484.373 188.4ZM492 181.808H493.736L498.672 189.712H498.552V181.808H500.072V192H498.456L493.28 183.744H493.52V192H492V181.808ZM506.572 192.208C505.67 192.208 504.892 191.989 504.236 191.552C503.585 191.109 503.081 190.488 502.724 189.688C502.366 188.883 502.188 187.939 502.188 186.856C502.188 185.715 502.377 184.757 502.756 183.984C503.134 183.205 503.654 182.619 504.316 182.224C504.982 181.824 505.734 181.624 506.572 181.624C507.697 181.624 508.593 181.904 509.26 182.464C509.926 183.019 510.369 183.741 510.588 184.632L508.964 184.944C508.772 184.352 508.468 183.88 508.052 183.528C507.636 183.171 507.142 182.992 506.572 182.992C506.07 182.992 505.612 183.136 505.196 183.424C504.78 183.712 504.446 184.144 504.196 184.72C503.945 185.291 503.82 186.003 503.82 186.856C503.82 187.645 503.924 188.339 504.132 188.936C504.34 189.528 504.646 189.989 505.052 190.32C505.457 190.651 505.964 190.816 506.572 190.816C507.313 190.816 507.897 190.619 508.324 190.224C508.75 189.824 508.964 189.304 508.964 188.664H510.604C510.604 189.411 510.436 190.048 510.1 190.576C509.769 191.099 509.302 191.501 508.7 191.784C508.097 192.067 507.388 192.208 506.572 192.208Z" fill="#1C1C1C"/>
<path d="M69.552 108L74.82 92.568H78.012L83.1 108H80.4L79.272 104.496H73.428L72.264 108H69.552ZM74.076 102.552H78.648L76.38 95.628L74.076 102.552ZM98.961 96.372H101.517V108H98.961V96.372ZM90.921 96.372H93.477V103.524C93.477 104.332 93.677 104.944 94.077 105.36C94.485 105.776 95.049 105.984 95.769 105.984C96.369 105.984 96.909 105.828 97.389 105.516C97.877 105.196 98.261 104.736 98.541 104.136C98.821 103.528 98.961 102.796 98.961 101.94H99.705C99.705 103.324 99.521 104.484 99.153 105.42C98.785 106.348 98.273 107.048 97.617 107.52C96.961 107.984 96.197 108.216 95.325 108.216C94.493 108.216 93.741 108.064 93.069 107.76C92.405 107.456 91.881 106.98 91.497 106.332C91.113 105.676 90.921 104.82 90.921 103.764V96.372ZM110.015 108.324C108.903 108.324 107.951 108.168 107.159 107.856C106.375 107.544 105.775 107.104 105.359 106.536C104.943 105.96 104.727 105.276 104.711 104.484H107.087C107.119 105.108 107.367 105.568 107.831 105.864C108.295 106.152 108.927 106.296 109.727 106.296C110.167 106.296 110.559 106.232 110.903 106.104C111.247 105.968 111.515 105.788 111.707 105.564C111.907 105.332 112.007 105.076 112.007 104.796C112.007 104.428 111.875 104.14 111.611 103.932C111.347 103.724 110.927 103.536 110.351 103.368L107.903 102.516C106.975 102.196 106.263 101.768 105.767 101.232C105.271 100.696 105.023 100.056 105.023 99.312C105.023 98.344 105.455 97.564 106.319 96.972C107.191 96.38 108.351 96.084 109.799 96.084C111.271 96.084 112.407 96.4 113.207 97.032C114.007 97.664 114.419 98.46 114.443 99.42H112.007C111.967 99.004 111.763 98.68 111.395 98.448C111.035 98.208 110.503 98.088 109.799 98.088C109.151 98.088 108.643 98.224 108.275 98.496C107.907 98.768 107.723 99.084 107.723 99.444C107.723 100.068 108.255 100.532 109.319 100.836L111.935 101.796C112.863 102.1 113.575 102.492 114.071 102.972C114.575 103.452 114.827 104.06 114.827 104.796C114.827 105.396 114.627 105.968 114.227 106.512C113.827 107.048 113.263 107.484 112.535 107.82C111.815 108.156 110.975 108.324 110.015 108.324ZM122.276 108.324C121.284 108.324 120.38 108.068 119.564 107.556C118.756 107.044 118.108 106.328 117.62 105.408C117.14 104.488 116.9 103.42 116.9 102.204C116.9 100.932 117.14 99.84 117.62 98.928C118.1 98.008 118.744 97.304 119.552 96.816C120.368 96.328 121.276 96.084 122.276 96.084C123.188 96.084 123.972 96.268 124.628 96.636C125.292 97.004 125.824 97.5 126.224 98.124C126.624 98.748 126.896 99.456 127.04 100.248C127.192 101.032 127.212 101.844 127.1 102.684H118.952V101.256H125.312L124.76 101.616C124.784 101.208 124.764 100.8 124.7 100.392C124.636 99.984 124.512 99.608 124.328 99.264C124.152 98.92 123.9 98.644 123.572 98.436C123.244 98.228 122.824 98.124 122.312 98.124C121.696 98.124 121.172 98.284 120.74 98.604C120.316 98.916 119.992 99.336 119.768 99.864C119.552 100.392 119.444 100.98 119.444 101.628V102.66C119.444 103.356 119.548 103.976 119.756 104.52C119.964 105.056 120.276 105.48 120.692 105.792C121.116 106.104 121.644 106.26 122.276 106.26C122.884 106.26 123.388 106.116 123.788 105.828C124.196 105.54 124.452 105.112 124.556 104.544H127.16C127.04 105.296 126.76 105.956 126.32 106.524C125.88 107.092 125.316 107.536 124.628 107.856C123.94 108.168 123.156 108.324 122.276 108.324ZM130.289 108V96.372H132.845V108H130.289ZM132.185 102.864C132.185 101.36 132.345 100.116 132.665 99.132C132.993 98.14 133.441 97.404 134.009 96.924C134.577 96.436 135.225 96.192 135.953 96.192C136.169 96.192 136.369 96.208 136.553 96.24C136.737 96.264 136.917 96.304 137.093 96.36L137.033 98.904C136.817 98.848 136.585 98.804 136.337 98.772C136.089 98.732 135.869 98.712 135.677 98.712C135.037 98.712 134.505 98.876 134.081 99.204C133.665 99.524 133.353 99.996 133.145 100.62C132.945 101.236 132.845 101.984 132.845 102.864H132.185ZM146.209 94.104C145.705 94.104 145.309 93.968 145.021 93.696C144.741 93.424 144.601 93.052 144.601 92.58C144.601 92.124 144.741 91.76 145.021 91.488C145.309 91.208 145.705 91.068 146.209 91.068C146.705 91.068 147.097 91.208 147.385 91.488C147.673 91.76 147.817 92.124 147.817 92.58C147.817 93.052 147.673 93.424 147.385 93.696C147.097 93.968 146.705 94.104 146.209 94.104ZM144.937 108V96.372H147.493V108H144.937ZM160.077 108V101.208C160.077 100.272 159.853 99.568 159.405 99.096C158.957 98.616 158.361 98.376 157.617 98.376C157.017 98.376 156.489 98.544 156.033 98.88C155.577 99.208 155.221 99.696 154.965 100.344C154.717 100.992 154.593 101.788 154.593 102.732H153.717C153.717 101.268 153.901 100.044 154.269 99.06C154.637 98.076 155.161 97.336 155.841 96.84C156.529 96.336 157.345 96.084 158.289 96.084C159.233 96.084 160.025 96.296 160.665 96.72C161.313 97.144 161.801 97.74 162.129 98.508C162.457 99.276 162.621 100.176 162.621 101.208V108H160.077ZM152.037 108V96.408H154.257L154.593 98.808V108H152.037ZM170.306 108.324C169.634 108.324 169.022 108.2 168.47 107.952C167.926 107.696 167.49 107.312 167.162 106.8C166.834 106.28 166.67 105.628 166.67 104.844V93.288H169.226V104.76C169.226 105.784 169.71 106.296 170.678 106.296C170.966 106.296 171.254 106.264 171.542 106.2C171.83 106.136 172.158 106.036 172.526 105.9L172.898 107.7C172.458 107.876 172.03 108.024 171.614 108.144C171.198 108.264 170.762 108.324 170.306 108.324ZM164.978 98.112V96.408H172.526V98.112H164.978ZM179.694 108.324C178.702 108.324 177.798 108.068 176.982 107.556C176.174 107.044 175.526 106.328 175.038 105.408C174.558 104.488 174.318 103.42 174.318 102.204C174.318 100.932 174.558 99.84 175.038 98.928C175.518 98.008 176.162 97.304 176.97 96.816C177.786 96.328 178.694 96.084 179.694 96.084C180.606 96.084 181.39 96.268 182.046 96.636C182.71 97.004 183.242 97.5 183.642 98.124C184.042 98.748 184.314 99.456 184.458 100.248C184.61 101.032 184.63 101.844 184.518 102.684H176.37V101.256H182.73L182.178 101.616C182.202 101.208 182.182 100.8 182.118 100.392C182.054 99.984 181.93 99.608 181.746 99.264C181.57 98.92 181.318 98.644 180.99 98.436C180.662 98.228 180.242 98.124 179.73 98.124C179.114 98.124 178.59 98.284 178.158 98.604C177.734 98.916 177.41 99.336 177.186 99.864C176.97 100.392 176.862 100.98 176.862 101.628V102.66C176.862 103.356 176.966 103.976 177.174 104.52C177.382 105.056 177.694 105.48 178.11 105.792C178.534 106.104 179.062 106.26 179.694 106.26C180.302 106.26 180.806 106.116 181.206 105.828C181.614 105.54 181.87 105.112 181.974 104.544H184.578C184.458 105.296 184.178 105.956 183.738 106.524C183.298 107.092 182.734 107.536 182.046 107.856C181.358 108.168 180.574 108.324 179.694 108.324ZM187.707 108V96.372H190.263V108H187.707ZM189.603 102.864C189.603 101.36 189.763 100.116 190.083 99.132C190.411 98.14 190.859 97.404 191.427 96.924C191.995 96.436 192.643 96.192 193.371 96.192C193.587 96.192 193.787 96.208 193.971 96.24C194.155 96.264 194.335 96.304 194.511 96.36L194.451 98.904C194.235 98.848 194.003 98.804 193.755 98.772C193.507 98.732 193.287 98.712 193.095 98.712C192.455 98.712 191.923 98.876 191.499 99.204C191.083 99.524 190.771 99.996 190.563 100.62C190.363 101.236 190.263 101.984 190.263 102.864H189.603ZM197.206 108V94.884C197.206 94.068 197.366 93.404 197.686 92.892C198.006 92.372 198.43 91.992 198.958 91.752C199.486 91.504 200.062 91.38 200.686 91.38C201.054 91.38 201.434 91.408 201.826 91.464C202.218 91.512 202.606 91.58 202.99 91.668L202.486 93.648C202.278 93.568 202.062 93.508 201.838 93.468C201.622 93.42 201.41 93.396 201.202 93.396C200.97 93.396 200.742 93.44 200.518 93.528C200.302 93.616 200.126 93.772 199.99 93.996C199.854 94.22 199.786 94.532 199.786 94.932V108H197.206ZM195.442 98.112V96.408H201.994V98.112H195.442ZM212.166 108L211.842 105.264V100.512C211.842 99.632 211.658 98.988 211.29 98.58C210.93 98.172 210.342 97.968 209.526 97.968C209.062 97.968 208.65 98.036 208.29 98.172C207.938 98.308 207.662 98.512 207.462 98.784C207.27 99.048 207.174 99.376 207.174 99.768H204.366C204.366 98.896 204.574 98.192 204.99 97.656C205.414 97.112 206.01 96.716 206.778 96.468C207.554 96.212 208.47 96.084 209.526 96.084C210.502 96.084 211.354 96.244 212.082 96.564C212.81 96.876 213.378 97.364 213.786 98.028C214.194 98.692 214.398 99.548 214.398 100.596V108H212.166ZM208.326 108.324C207.342 108.324 206.522 108.152 205.866 107.808C205.218 107.464 204.73 107.012 204.402 106.452C204.074 105.892 203.91 105.292 203.91 104.652C203.91 103.9 204.102 103.276 204.486 102.78C204.878 102.284 205.422 101.916 206.118 101.676C206.822 101.428 207.638 101.304 208.566 101.304C209.198 101.304 209.798 101.356 210.366 101.46C210.942 101.564 211.514 101.7 212.082 101.868V103.392C211.626 103.232 211.126 103.108 210.582 103.02C210.038 102.932 209.534 102.888 209.07 102.888C208.366 102.888 207.782 103.024 207.318 103.296C206.862 103.56 206.634 104.012 206.634 104.652C206.634 105.116 206.818 105.516 207.186 105.852C207.554 106.188 208.138 106.356 208.938 106.356C209.538 106.356 210.054 106.224 210.486 105.96C210.918 105.696 211.25 105.364 211.482 104.964C211.722 104.564 211.842 104.164 211.842 103.764H212.454C212.454 104.58 212.294 105.336 211.974 106.032C211.662 106.72 211.198 107.276 210.582 107.7C209.966 108.116 209.214 108.324 208.326 108.324ZM222.587 108.324C221.635 108.324 220.743 108.072 219.911 107.568C219.087 107.064 218.419 106.352 217.907 105.432C217.403 104.512 217.151 103.432 217.151 102.192C217.151 100.888 217.403 99.78 217.907 98.868C218.419 97.956 219.087 97.264 219.911 96.792C220.743 96.32 221.635 96.084 222.587 96.084C223.315 96.084 223.959 96.2 224.519 96.432C225.087 96.664 225.571 96.976 225.971 97.368C226.371 97.76 226.691 98.2 226.931 98.688C227.171 99.168 227.331 99.66 227.411 100.164L224.819 100.26C224.667 99.708 224.399 99.256 224.015 98.904C223.639 98.552 223.155 98.376 222.563 98.376C222.083 98.376 221.627 98.512 221.195 98.784C220.763 99.056 220.411 99.472 220.139 100.032C219.875 100.592 219.743 101.312 219.743 102.192C219.743 103.016 219.867 103.712 220.115 104.28C220.363 104.848 220.699 105.28 221.123 105.576C221.555 105.864 222.035 106.008 222.563 106.008C223.339 106.008 223.907 105.824 224.267 105.456C224.635 105.08 224.819 104.572 224.819 103.932H227.411C227.411 104.748 227.223 105.488 226.847 106.152C226.471 106.816 225.923 107.344 225.203 107.736C224.483 108.128 223.611 108.324 222.587 108.324ZM234.776 108.324C233.784 108.324 232.88 108.068 232.064 107.556C231.256 107.044 230.608 106.328 230.12 105.408C229.64 104.488 229.4 103.42 229.4 102.204C229.4 100.932 229.64 99.84 230.12 98.928C230.6 98.008 231.244 97.304 232.052 96.816C232.868 96.328 233.776 96.084 234.776 96.084C235.688 96.084 236.472 96.268 237.128 96.636C237.792 97.004 238.324 97.5 238.724 98.124C239.124 98.748 239.396 99.456 239.54 100.248C239.692 101.032 239.712 101.844 239.6 102.684H231.452V101.256H237.812L237.26 101.616C237.284 101.208 237.264 100.8 237.2 100.392C237.136 99.984 237.012 99.608 236.828 99.264C236.652 98.92 236.4 98.644 236.072 98.436C235.744 98.228 235.324 98.124 234.812 98.124C234.196 98.124 233.672 98.284 233.24 98.604C232.816 98.916 232.492 99.336 232.268 99.864C232.052 100.392 231.944 100.98 231.944 101.628V102.66C231.944 103.356 232.048 103.976 232.256 104.52C232.464 105.056 232.776 105.48 233.192 105.792C233.616 106.104 234.144 106.26 234.776 106.26C235.384 106.26 235.888 106.116 236.288 105.828C236.696 105.54 236.952 105.112 237.056 104.544H239.66C239.54 105.296 239.26 105.956 238.82 106.524C238.38 107.092 237.816 107.536 237.128 107.856C236.44 108.168 235.656 108.324 234.776 108.324ZM249.859 94.104C249.355 94.104 248.959 93.968 248.671 93.696C248.391 93.424 248.251 93.052 248.251 92.58C248.251 92.124 248.391 91.76 248.671 91.488C248.959 91.208 249.355 91.068 249.859 91.068C250.355 91.068 250.747 91.208 251.035 91.488C251.323 91.76 251.467 92.124 251.467 92.58C251.467 93.052 251.323 93.424 251.035 93.696C250.747 93.968 250.355 94.104 249.859 94.104ZM248.587 108V96.372H251.143V108H248.587ZM259.959 108.324C258.847 108.324 257.895 108.168 257.103 107.856C256.319 107.544 255.719 107.104 255.303 106.536C254.887 105.96 254.671 105.276 254.655 104.484H257.031C257.063 105.108 257.311 105.568 257.775 105.864C258.239 106.152 258.871 106.296 259.671 106.296C260.111 106.296 260.503 106.232 260.847 106.104C261.191 105.968 261.459 105.788 261.651 105.564C261.851 105.332 261.951 105.076 261.951 104.796C261.951 104.428 261.819 104.14 261.555 103.932C261.291 103.724 260.871 103.536 260.295 103.368L257.847 102.516C256.919 102.196 256.207 101.768 255.711 101.232C255.215 100.696 254.967 100.056 254.967 99.312C254.967 98.344 255.399 97.564 256.263 96.972C257.135 96.38 258.295 96.084 259.743 96.084C261.215 96.084 262.351 96.4 263.151 97.032C263.951 97.664 264.363 98.46 264.387 99.42H261.951C261.911 99.004 261.707 98.68 261.339 98.448C260.979 98.208 260.447 98.088 259.743 98.088C259.095 98.088 258.587 98.224 258.219 98.496C257.851 98.768 257.667 99.084 257.667 99.444C257.667 100.068 258.199 100.532 259.263 100.836L261.879 101.796C262.807 102.1 263.519 102.492 264.015 102.972C264.519 103.452 264.771 104.06 264.771 104.796C264.771 105.396 264.571 105.968 264.171 106.512C263.771 107.048 263.207 107.484 262.479 107.82C261.759 108.156 260.919 108.324 259.959 108.324ZM273.576 108V91.56H276.132V108H273.576ZM281.841 94.104C281.337 94.104 280.941 93.968 280.653 93.696C280.373 93.424 280.233 93.052 280.233 92.58C280.233 92.124 280.373 91.76 280.653 91.488C280.941 91.208 281.337 91.068 281.841 91.068C282.337 91.068 282.729 91.208 283.017 91.488C283.305 91.76 283.449 92.124 283.449 92.58C283.449 93.052 283.305 93.424 283.017 93.696C282.729 93.968 282.337 94.104 281.841 94.104ZM280.569 108V96.372H283.125V108H280.569ZM287.669 108V91.56H290.225V108H287.669ZM289.865 100.956L295.109 96.408H298.589L289.865 103.62V100.956ZM295.745 108L290.477 100.632L292.937 100.068L298.877 108H295.745ZM305.537 108.324C304.545 108.324 303.641 108.068 302.825 107.556C302.017 107.044 301.369 106.328 300.881 105.408C300.401 104.488 300.161 103.42 300.161 102.204C300.161 100.932 300.401 99.84 300.881 98.928C301.361 98.008 302.005 97.304 302.813 96.816C303.629 96.328 304.537 96.084 305.537 96.084C306.449 96.084 307.233 96.268 307.889 96.636C308.553 97.004 309.085 97.5 309.485 98.124C309.885 98.748 310.157 99.456 310.301 100.248C310.453 101.032 310.473 101.844 310.361 102.684H302.213V101.256H308.573L308.021 101.616C308.045 101.208 308.025 100.8 307.961 100.392C307.897 99.984 307.773 99.608 307.589 99.264C307.413 98.92 307.161 98.644 306.833 98.436C306.505 98.228 306.085 98.124 305.573 98.124C304.957 98.124 304.433 98.284 304.001 98.604C303.577 98.916 303.253 99.336 303.029 99.864C302.813 100.392 302.705 100.98 302.705 101.628V102.66C302.705 103.356 302.809 103.976 303.017 104.52C303.225 105.056 303.537 105.48 303.953 105.792C304.377 106.104 304.905 106.26 305.537 106.26C306.145 106.26 306.649 106.116 307.049 105.828C307.457 105.54 307.713 105.112 307.817 104.544H310.421C310.301 105.296 310.021 105.956 309.581 106.524C309.141 107.092 308.577 107.536 307.889 107.856C307.201 108.168 306.417 108.324 305.537 108.324ZM326.464 108L326.14 105.264V100.512C326.14 99.632 325.956 98.988 325.588 98.58C325.228 98.172 324.64 97.968 323.824 97.968C323.36 97.968 322.948 98.036 322.588 98.172C322.236 98.308 321.96 98.512 321.76 98.784C321.568 99.048 321.472 99.376 321.472 99.768H318.664C318.664 98.896 318.872 98.192 319.288 97.656C319.712 97.112 320.308 96.716 321.076 96.468C321.852 96.212 322.768 96.084 323.824 96.084C324.8 96.084 325.652 96.244 326.38 96.564C327.108 96.876 327.676 97.364 328.084 98.028C328.492 98.692 328.696 99.548 328.696 100.596V108H326.464ZM322.624 108.324C321.64 108.324 320.82 108.152 320.164 107.808C319.516 107.464 319.028 107.012 318.7 106.452C318.372 105.892 318.208 105.292 318.208 104.652C318.208 103.9 318.4 103.276 318.784 102.78C319.176 102.284 319.72 101.916 320.416 101.676C321.12 101.428 321.936 101.304 322.864 101.304C323.496 101.304 324.096 101.356 324.664 101.46C325.24 101.564 325.812 101.7 326.38 101.868V103.392C325.924 103.232 325.424 103.108 324.88 103.02C324.336 102.932 323.832 102.888 323.368 102.888C322.664 102.888 322.08 103.024 321.616 103.296C321.16 103.56 320.932 104.012 320.932 104.652C320.932 105.116 321.116 105.516 321.484 105.852C321.852 106.188 322.436 106.356 323.236 106.356C323.836 106.356 324.352 106.224 324.784 105.96C325.216 105.696 325.548 105.364 325.78 104.964C326.02 104.564 326.14 104.164 326.14 103.764H326.752C326.752 104.58 326.592 105.336 326.272 106.032C325.96 106.72 325.496 107.276 324.88 107.7C324.264 108.116 323.512 108.324 322.624 108.324ZM339.861 94.104C339.373 94.104 338.985 93.968 338.697 93.696C338.409 93.424 338.265 93.052 338.265 92.58C338.265 92.124 338.409 91.76 338.697 91.488C338.985 91.208 339.373 91.068 339.861 91.068C340.357 91.068 340.749 91.208 341.037 91.488C341.325 91.76 341.469 92.124 341.469 92.58C341.469 93.052 341.325 93.424 341.037 93.696C340.749 93.968 340.357 94.104 339.861 94.104ZM337.317 113.988C336.709 113.988 336.141 113.916 335.613 113.772C335.085 113.636 334.545 113.448 333.993 113.208L334.053 110.988C334.485 111.212 334.929 111.396 335.385 111.54C335.833 111.684 336.277 111.756 336.717 111.756C337.333 111.756 337.801 111.576 338.121 111.216C338.449 110.856 338.613 110.256 338.613 109.416V96.36H341.157V109.464C341.157 111.088 340.813 112.248 340.125 112.944C339.445 113.64 338.509 113.988 337.317 113.988ZM350.172 108.324C349.116 108.324 348.168 108.096 347.328 107.64C346.488 107.184 345.82 106.504 345.324 105.6C344.828 104.696 344.58 103.568 344.58 102.216C344.58 100.84 344.828 99.7 345.324 98.796C345.82 97.892 346.488 97.216 347.328 96.768C348.168 96.312 349.116 96.084 350.172 96.084C351.212 96.084 352.152 96.312 352.992 96.768C353.832 97.216 354.496 97.892 354.984 98.796C355.48 99.7 355.728 100.84 355.728 102.216C355.728 103.568 355.48 104.696 354.984 105.6C354.496 106.504 353.832 107.184 352.992 107.64C352.152 108.096 351.212 108.324 350.172 108.324ZM350.088 106.092C350.704 106.092 351.24 105.944 351.696 105.648C352.16 105.344 352.52 104.904 352.776 104.328C353.032 103.752 353.16 103.048 353.16 102.216C353.16 100.944 352.904 99.972 352.392 99.3C351.888 98.628 351.176 98.292 350.256 98.292C349.64 98.292 349.1 98.444 348.636 98.748C348.172 99.044 347.812 99.484 347.556 100.068C347.3 100.644 347.172 101.36 347.172 102.216C347.172 103.464 347.428 104.424 347.94 105.096C348.46 105.76 349.176 106.092 350.088 106.092ZM358.813 108V91.56H361.369V108H358.813ZM361.009 100.956L366.253 96.408H369.733L361.009 103.62V100.956ZM366.889 108L361.621 100.632L364.081 100.068L370.021 108H366.889ZM376.681 108.324C375.689 108.324 374.785 108.068 373.969 107.556C373.161 107.044 372.513 106.328 372.025 105.408C371.545 104.488 371.305 103.42 371.305 102.204C371.305 100.932 371.545 99.84 372.025 98.928C372.505 98.008 373.149 97.304 373.957 96.816C374.773 96.328 375.681 96.084 376.681 96.084C377.593 96.084 378.377 96.268 379.033 96.636C379.697 97.004 380.229 97.5 380.629 98.124C381.029 98.748 381.301 99.456 381.445 100.248C381.597 101.032 381.617 101.844 381.505 102.684H373.357V101.256H379.717L379.165 101.616C379.189 101.208 379.169 100.8 379.105 100.392C379.041 99.984 378.917 99.608 378.733 99.264C378.557 98.92 378.305 98.644 377.977 98.436C377.649 98.228 377.229 98.124 376.717 98.124C376.101 98.124 375.577 98.284 375.145 98.604C374.721 98.916 374.397 99.336 374.173 99.864C373.957 100.392 373.849 100.98 373.849 101.628V102.66C373.849 103.356 373.953 103.976 374.161 104.52C374.369 105.056 374.681 105.48 375.097 105.792C375.521 106.104 376.049 106.26 376.681 106.26C377.289 106.26 377.793 106.116 378.193 105.828C378.601 105.54 378.857 105.112 378.961 104.544H381.565C381.445 105.296 381.165 105.956 380.725 106.524C380.285 107.092 379.721 107.536 379.033 107.856C378.345 108.168 377.561 108.324 376.681 108.324ZM383.014 106.5C383.014 106.004 383.182 105.588 383.518 105.252C383.862 104.908 384.294 104.736 384.814 104.736C385.342 104.736 385.782 104.908 386.134 105.252C386.494 105.588 386.674 106.004 386.674 106.5C386.674 106.988 386.494 107.396 386.134 107.724C385.782 108.052 385.342 108.216 384.814 108.216C384.294 108.216 383.862 108.052 383.518 107.724C383.182 107.388 383.014 106.98 383.014 106.5ZM394.826 108V92.568H397.382V108H394.826ZM402.263 108V94.884C402.263 94.068 402.423 93.404 402.743 92.892C403.063 92.372 403.487 91.992 404.015 91.752C404.543 91.504 405.119 91.38 405.743 91.38C406.111 91.38 406.491 91.408 406.883 91.464C407.275 91.512 407.663 91.58 408.047 91.668L407.543 93.648C407.335 93.568 407.119 93.508 406.895 93.468C406.679 93.42 406.467 93.396 406.259 93.396C406.027 93.396 405.799 93.44 405.575 93.528C405.359 93.616 405.183 93.772 405.047 93.996C404.911 94.22 404.843 94.532 404.843 94.932V108H402.263ZM400.499 98.112V96.408H407.051V98.112H400.499ZM69.48 127.408H72.372L75.648 136.768H75.168L77.904 127.408H80.508L76.08 141.172C75.656 142.484 75.116 143.448 74.46 144.064C73.812 144.68 73.012 144.988 72.06 144.988C71.524 144.988 71.004 144.92 70.5 144.784C69.996 144.656 69.484 144.46 68.964 144.196V141.928C69.396 142.216 69.816 142.424 70.224 142.552C70.632 142.688 71.044 142.756 71.46 142.756C71.868 142.756 72.22 142.64 72.516 142.408C72.812 142.176 73.064 141.86 73.272 141.46C73.488 141.068 73.668 140.628 73.812 140.14L74.16 139L69.48 127.408ZM87.1965 139.324C86.1405 139.324 85.1925 139.096 84.3525 138.64C83.5125 138.184 82.8445 137.504 82.3485 136.6C81.8525 135.696 81.6045 134.568 81.6045 133.216C81.6045 131.84 81.8525 130.7 82.3485 129.796C82.8445 128.892 83.5125 128.216 84.3525 127.768C85.1925 127.312 86.1405 127.084 87.1965 127.084C88.2365 127.084 89.1765 127.312 90.0165 127.768C90.8565 128.216 91.5205 128.892 92.0085 129.796C92.5045 130.7 92.7525 131.84 92.7525 133.216C92.7525 134.568 92.5045 135.696 92.0085 136.6C91.5205 137.504 90.8565 138.184 90.0165 138.64C89.1765 139.096 88.2365 139.324 87.1965 139.324ZM87.1125 137.092C87.7285 137.092 88.2645 136.944 88.7205 136.648C89.1845 136.344 89.5445 135.904 89.8005 135.328C90.0565 134.752 90.1845 134.048 90.1845 133.216C90.1845 131.944 89.9285 130.972 89.4165 130.3C88.9125 129.628 88.2005 129.292 87.2805 129.292C86.6645 129.292 86.1245 129.444 85.6605 129.748C85.1965 130.044 84.8365 130.484 84.5805 131.068C84.3245 131.644 84.1965 132.36 84.1965 133.216C84.1965 134.464 84.4525 135.424 84.9645 136.096C85.4845 136.76 86.2005 137.092 87.1125 137.092ZM103.602 127.372H106.158V139H103.602V127.372ZM95.5616 127.372H98.1176V134.524C98.1176 135.332 98.3176 135.944 98.7176 136.36C99.1256 136.776 99.6896 136.984 100.41 136.984C101.01 136.984 101.55 136.828 102.03 136.516C102.518 136.196 102.902 135.736 103.182 135.136C103.462 134.528 103.602 133.796 103.602 132.94H104.346C104.346 134.324 104.162 135.484 103.794 136.42C103.426 137.348 102.914 138.048 102.258 138.52C101.602 138.984 100.838 139.216 99.9656 139.216C99.1336 139.216 98.3816 139.064 97.7096 138.76C97.0456 138.456 96.5216 137.98 96.1376 137.332C95.7536 136.676 95.5616 135.82 95.5616 134.764V127.372ZM124.017 139V132.208C124.017 131.272 123.793 130.568 123.345 130.096C122.897 129.616 122.301 129.376 121.557 129.376C120.957 129.376 120.429 129.544 119.973 129.88C119.517 130.208 119.161 130.696 118.905 131.344C118.657 131.992 118.533 132.788 118.533 133.732H117.657C117.657 132.268 117.841 131.044 118.209 130.06C118.577 129.076 119.101 128.336 119.781 127.84C120.469 127.336 121.285 127.084 122.229 127.084C123.173 127.084 123.965 127.296 124.605 127.72C125.253 128.144 125.741 128.74 126.069 129.508C126.397 130.276 126.561 131.176 126.561 132.208V139H124.017ZM115.977 139V122.56H118.533V139H115.977ZM137.75 139L137.426 136.264V131.512C137.426 130.632 137.242 129.988 136.874 129.58C136.514 129.172 135.926 128.968 135.11 128.968C134.646 128.968 134.234 129.036 133.874 129.172C133.522 129.308 133.246 129.512 133.046 129.784C132.854 130.048 132.758 130.376 132.758 130.768H129.95C129.95 129.896 130.158 129.192 130.574 128.656C130.998 128.112 131.594 127.716 132.362 127.468C133.138 127.212 134.054 127.084 135.11 127.084C136.086 127.084 136.938 127.244 137.666 127.564C138.394 127.876 138.962 128.364 139.37 129.028C139.778 129.692 139.982 130.548 139.982 131.596V139H137.75ZM133.91 139.324C132.926 139.324 132.106 139.152 131.45 138.808C130.802 138.464 130.314 138.012 129.986 137.452C129.658 136.892 129.494 136.292 129.494 135.652C129.494 134.9 129.686 134.276 130.07 133.78C130.462 133.284 131.006 132.916 131.702 132.676C132.406 132.428 133.222 132.304 134.15 132.304C134.782 132.304 135.382 132.356 135.95 132.46C136.526 132.564 137.098 132.7 137.666 132.868V134.392C137.21 134.232 136.71 134.108 136.166 134.02C135.622 133.932 135.118 133.888 134.654 133.888C133.95 133.888 133.366 134.024 132.902 134.296C132.446 134.56 132.218 135.012 132.218 135.652C132.218 136.116 132.402 136.516 132.77 136.852C133.138 137.188 133.722 137.356 134.522 137.356C135.122 137.356 135.638 137.224 136.07 136.96C136.502 136.696 136.834 136.364 137.066 135.964C137.306 135.564 137.426 135.164 137.426 134.764H138.038C138.038 135.58 137.878 136.336 137.558 137.032C137.246 137.72 136.782 138.276 136.166 138.7C135.55 139.116 134.798 139.324 133.91 139.324ZM141.906 127.408H144.846L147.87 136.816H147.642L150.666 127.408H153.594L149.19 139H146.322L141.906 127.408ZM160.102 139.324C159.11 139.324 158.206 139.068 157.39 138.556C156.582 138.044 155.934 137.328 155.446 136.408C154.966 135.488 154.726 134.42 154.726 133.204C154.726 131.932 154.966 130.84 155.446 129.928C155.926 129.008 156.57 128.304 157.378 127.816C158.194 127.328 159.102 127.084 160.102 127.084C161.014 127.084 161.798 127.268 162.454 127.636C163.118 128.004 163.65 128.5 164.05 129.124C164.45 129.748 164.722 130.456 164.866 131.248C165.018 132.032 165.038 132.844 164.926 133.684H156.778V132.256H163.138L162.586 132.616C162.61 132.208 162.59 131.8 162.526 131.392C162.462 130.984 162.338 130.608 162.154 130.264C161.978 129.92 161.726 129.644 161.398 129.436C161.07 129.228 160.65 129.124 160.138 129.124C159.522 129.124 158.998 129.284 158.566 129.604C158.142 129.916 157.818 130.336 157.594 130.864C157.378 131.392 157.27 131.98 157.27 132.628V133.66C157.27 134.356 157.374 134.976 157.582 135.52C157.79 136.056 158.102 136.48 158.518 136.792C158.942 137.104 159.47 137.26 160.102 137.26C160.71 137.26 161.214 137.116 161.614 136.828C162.022 136.54 162.278 136.112 162.382 135.544H164.986C164.866 136.296 164.586 136.956 164.146 137.524C163.706 138.092 163.142 138.536 162.454 138.856C161.766 139.168 160.982 139.324 160.102 139.324ZM177.524 139.324C176.852 139.324 176.24 139.2 175.688 138.952C175.144 138.696 174.708 138.312 174.38 137.8C174.052 137.28 173.888 136.628 173.888 135.844V124.288H176.444V135.76C176.444 136.784 176.928 137.296 177.896 137.296C178.184 137.296 178.472 137.264 178.76 137.2C179.048 137.136 179.376 137.036 179.744 136.9L180.116 138.7C179.676 138.876 179.248 139.024 178.832 139.144C178.416 139.264 177.98 139.324 177.524 139.324ZM172.196 129.112V127.408H179.744V129.112H172.196ZM187.128 139.324C186.072 139.324 185.124 139.096 184.284 138.64C183.444 138.184 182.776 137.504 182.28 136.6C181.784 135.696 181.536 134.568 181.536 133.216C181.536 131.84 181.784 130.7 182.28 129.796C182.776 128.892 183.444 128.216 184.284 127.768C185.124 127.312 186.072 127.084 187.128 127.084C188.168 127.084 189.108 127.312 189.948 127.768C190.788 128.216 191.452 128.892 191.94 129.796C192.436 130.7 192.684 131.84 192.684 133.216C192.684 134.568 192.436 135.696 191.94 136.6C191.452 137.504 190.788 138.184 189.948 138.64C189.108 139.096 188.168 139.324 187.128 139.324ZM187.044 137.092C187.66 137.092 188.196 136.944 188.652 136.648C189.116 136.344 189.476 135.904 189.732 135.328C189.988 134.752 190.116 134.048 190.116 133.216C190.116 131.944 189.86 130.972 189.348 130.3C188.844 129.628 188.132 129.292 187.212 129.292C186.596 129.292 186.056 129.444 185.592 129.748C185.128 130.044 184.768 130.484 184.512 131.068C184.256 131.644 184.128 132.36 184.128 133.216C184.128 134.464 184.384 135.424 184.896 136.096C185.416 136.76 186.132 137.092 187.044 137.092ZM205.599 139.324C204.607 139.324 203.703 139.068 202.887 138.556C202.079 138.044 201.431 137.328 200.943 136.408C200.463 135.488 200.223 134.42 200.223 133.204C200.223 131.932 200.463 130.84 200.943 129.928C201.423 129.008 202.067 128.304 202.875 127.816C203.691 127.328 204.599 127.084 205.599 127.084C206.511 127.084 207.295 127.268 207.951 127.636C208.615 128.004 209.147 128.5 209.547 129.124C209.947 129.748 210.219 130.456 210.363 131.248C210.515 132.032 210.535 132.844 210.423 133.684H202.275V132.256H208.635L208.083 132.616C208.107 132.208 208.087 131.8 208.023 131.392C207.959 130.984 207.835 130.608 207.651 130.264C207.475 129.92 207.223 129.644 206.895 129.436C206.567 129.228 206.147 129.124 205.635 129.124C205.019 129.124 204.495 129.284 204.063 129.604C203.639 129.916 203.315 130.336 203.091 130.864C202.875 131.392 202.767 131.98 202.767 132.628V133.66C202.767 134.356 202.871 134.976 203.079 135.52C203.287 136.056 203.599 136.48 204.015 136.792C204.439 137.104 204.967 137.26 205.599 137.26C206.207 137.26 206.711 137.116 207.111 136.828C207.519 136.54 207.775 136.112 207.879 135.544H210.483C210.363 136.296 210.083 136.956 209.643 137.524C209.203 138.092 208.639 138.536 207.951 138.856C207.263 139.168 206.479 139.324 205.599 139.324ZM211.776 139L216.252 133.216L211.776 127.372H214.908L217.884 131.284L220.728 127.372H223.848L219.384 133.216L223.836 139H220.728L217.716 135.076L214.908 139H211.776ZM231.888 139.324C231.032 139.324 230.3 139.14 229.692 138.772C229.084 138.396 228.62 137.836 228.3 137.092C227.98 136.348 227.82 135.42 227.82 134.308H228.792C228.792 134.884 228.92 135.372 229.176 135.772C229.432 136.172 229.768 136.48 230.184 136.696C230.608 136.904 231.056 137.008 231.528 137.008C232.032 137.008 232.524 136.868 233.004 136.588C233.484 136.308 233.88 135.888 234.192 135.328C234.504 134.76 234.66 134.048 234.66 133.192C234.66 132.4 234.524 131.72 234.252 131.152C233.988 130.576 233.62 130.136 233.148 129.832C232.684 129.528 232.16 129.376 231.576 129.376C231.08 129.376 230.616 129.492 230.184 129.724C229.76 129.956 229.42 130.292 229.164 130.732C228.916 131.164 228.792 131.696 228.792 132.328H227.82C227.82 131.136 228.008 130.152 228.384 129.376C228.76 128.6 229.264 128.024 229.896 127.648C230.528 127.272 231.224 127.084 231.984 127.084C232.896 127.084 233.752 127.328 234.552 127.816C235.352 128.304 236 129.004 236.496 129.916C237 130.82 237.252 131.912 237.252 133.192C237.252 134.48 237 135.58 236.496 136.492C235.992 137.404 235.332 138.104 234.516 138.592C233.7 139.08 232.824 139.324 231.888 139.324ZM226.236 144.676V127.408H228.336L228.792 130.228V144.676H226.236ZM240.337 139V122.56H242.893V139H240.337ZM254.446 139L254.122 136.264V131.512C254.122 130.632 253.938 129.988 253.57 129.58C253.21 129.172 252.622 128.968 251.806 128.968C251.342 128.968 250.93 129.036 250.57 129.172C250.218 129.308 249.942 129.512 249.742 129.784C249.55 130.048 249.454 130.376 249.454 130.768H246.646C246.646 129.896 246.854 129.192 247.27 128.656C247.694 128.112 248.29 127.716 249.058 127.468C249.834 127.212 250.75 127.084 251.806 127.084C252.782 127.084 253.634 127.244 254.362 127.564C255.09 127.876 255.658 128.364 256.066 129.028C256.474 129.692 256.678 130.548 256.678 131.596V139H254.446ZM250.606 139.324C249.622 139.324 248.802 139.152 248.146 138.808C247.498 138.464 247.01 138.012 246.682 137.452C246.354 136.892 246.19 136.292 246.19 135.652C246.19 134.9 246.382 134.276 246.766 133.78C247.158 133.284 247.702 132.916 248.398 132.676C249.102 132.428 249.918 132.304 250.846 132.304C251.478 132.304 252.078 132.356 252.646 132.46C253.222 132.564 253.794 132.7 254.362 132.868V134.392C253.906 134.232 253.406 134.108 252.862 134.02C252.318 133.932 251.814 133.888 251.35 133.888C250.646 133.888 250.062 134.024 249.598 134.296C249.142 134.56 248.914 135.012 248.914 135.652C248.914 136.116 249.098 136.516 249.466 136.852C249.834 137.188 250.418 137.356 251.218 137.356C251.818 137.356 252.334 137.224 252.766 136.96C253.198 136.696 253.53 136.364 253.762 135.964C254.002 135.564 254.122 135.164 254.122 134.764H254.734C254.734 135.58 254.574 136.336 254.254 137.032C253.942 137.72 253.478 138.276 252.862 138.7C252.246 139.116 251.494 139.324 250.606 139.324ZM262.046 125.104C261.542 125.104 261.146 124.968 260.858 124.696C260.578 124.424 260.438 124.052 260.438 123.58C260.438 123.124 260.578 122.76 260.858 122.488C261.146 122.208 261.542 122.068 262.046 122.068C262.542 122.068 262.934 122.208 263.222 122.488C263.51 122.76 263.654 123.124 263.654 123.58C263.654 124.052 263.51 124.424 263.222 124.696C262.934 124.968 262.542 125.104 262.046 125.104ZM260.774 139V127.372H263.33V139H260.774ZM275.915 139V132.208C275.915 131.272 275.691 130.568 275.243 130.096C274.795 129.616 274.199 129.376 273.455 129.376C272.855 129.376 272.327 129.544 271.871 129.88C271.415 130.208 271.059 130.696 270.803 131.344C270.555 131.992 270.431 132.788 270.431 133.732H269.555C269.555 132.268 269.739 131.044 270.107 130.06C270.475 129.076 270.999 128.336 271.679 127.84C272.367 127.336 273.183 127.084 274.127 127.084C275.071 127.084 275.863 127.296 276.503 127.72C277.151 128.144 277.639 128.74 277.967 129.508C278.295 130.276 278.459 131.176 278.459 132.208V139H275.915ZM267.875 139V127.408H270.095L270.431 129.808V139H267.875ZM289.396 125.104C288.892 125.104 288.496 124.968 288.208 124.696C287.928 124.424 287.788 124.052 287.788 123.58C287.788 123.124 287.928 122.76 288.208 122.488C288.496 122.208 288.892 122.068 289.396 122.068C289.892 122.068 290.284 122.208 290.572 122.488C290.86 122.76 291.004 123.124 291.004 123.58C291.004 124.052 290.86 124.424 290.572 124.696C290.284 124.968 289.892 125.104 289.396 125.104ZM288.124 139V127.372H290.68V139H288.124ZM299.04 139.324C298.368 139.324 297.756 139.2 297.204 138.952C296.66 138.696 296.224 138.312 295.896 137.8C295.568 137.28 295.404 136.628 295.404 135.844V124.288H297.96V135.76C297.96 136.784 298.444 137.296 299.412 137.296C299.7 137.296 299.988 137.264 300.276 137.2C300.564 137.136 300.892 137.036 301.26 136.9L301.632 138.7C301.192 138.876 300.764 139.024 300.348 139.144C299.932 139.264 299.496 139.324 299.04 139.324ZM293.712 129.112V127.408H301.26V129.112H293.712ZM304.408 142.084L302.512 141.124C303.024 140.868 303.468 140.576 303.844 140.248C304.228 139.928 304.48 139.552 304.6 139.12C304.184 139.048 303.828 138.884 303.532 138.628C303.244 138.364 303.1 138.02 303.1 137.596C303.1 137.156 303.264 136.784 303.592 136.48C303.928 136.176 304.356 136.024 304.876 136.024C305.516 136.024 306.024 136.256 306.4 136.72C306.776 137.176 306.964 137.716 306.964 138.34C306.964 139.06 306.74 139.76 306.292 140.44C305.844 141.128 305.216 141.676 304.408 142.084ZM316.667 125.104C316.163 125.104 315.767 124.968 315.479 124.696C315.199 124.424 315.059 124.052 315.059 123.58C315.059 123.124 315.199 122.76 315.479 122.488C315.767 122.208 316.163 122.068 316.667 122.068C317.163 122.068 317.555 122.208 317.843 122.488C318.131 122.76 318.275 123.124 318.275 123.58C318.275 124.052 318.131 124.424 317.843 124.696C317.555 124.968 317.163 125.104 316.667 125.104ZM315.395 139V127.372H317.951V139H315.395ZM326.311 139.324C325.639 139.324 325.027 139.2 324.475 138.952C323.931 138.696 323.495 138.312 323.167 137.8C322.839 137.28 322.675 136.628 322.675 135.844V124.288H325.231V135.76C325.231 136.784 325.715 137.296 326.683 137.296C326.971 137.296 327.259 137.264 327.547 137.2C327.835 137.136 328.163 137.036 328.531 136.9L328.903 138.7C328.463 138.876 328.035 139.024 327.619 139.144C327.203 139.264 326.767 139.324 326.311 139.324ZM320.983 129.112V127.408H328.531V129.112H320.983ZM331.559 129.628L329.771 128.632C330.275 128.384 330.719 128.096 331.103 127.768C331.487 127.44 331.743 127.06 331.871 126.628C331.431 126.564 331.067 126.404 330.779 126.148C330.491 125.884 330.347 125.54 330.347 125.116C330.347 124.66 330.519 124.284 330.863 123.988C331.207 123.684 331.635 123.532 332.147 123.532C332.579 123.532 332.947 123.644 333.251 123.868C333.563 124.084 333.799 124.372 333.959 124.732C334.119 125.092 334.199 125.488 334.199 125.92C334.199 126.656 333.959 127.352 333.479 128.008C332.999 128.664 332.359 129.204 331.559 129.628ZM341.469 139.324C340.357 139.324 339.405 139.168 338.613 138.856C337.829 138.544 337.229 138.104 336.813 137.536C336.397 136.96 336.181 136.276 336.165 135.484H338.541C338.573 136.108 338.821 136.568 339.285 136.864C339.749 137.152 340.381 137.296 341.181 137.296C341.621 137.296 342.013 137.232 342.357 137.104C342.701 136.968 342.969 136.788 343.161 136.564C343.361 136.332 343.461 136.076 343.461 135.796C343.461 135.428 343.329 135.14 343.065 134.932C342.801 134.724 342.381 134.536 341.805 134.368L339.357 133.516C338.429 133.196 337.717 132.768 337.221 132.232C336.725 131.696 336.477 131.056 336.477 130.312C336.477 129.344 336.909 128.564 337.773 127.972C338.645 127.38 339.805 127.084 341.253 127.084C342.725 127.084 343.861 127.4 344.661 128.032C345.461 128.664 345.873 129.46 345.897 130.42H343.461C343.421 130.004 343.217 129.68 342.849 129.448C342.489 129.208 341.957 129.088 341.253 129.088C340.605 129.088 340.097 129.224 339.729 129.496C339.361 129.768 339.177 130.084 339.177 130.444C339.177 131.068 339.709 131.532 340.773 131.836L343.389 132.796C344.317 133.1 345.029 133.492 345.525 133.972C346.029 134.452 346.281 135.06 346.281 135.796C346.281 136.396 346.081 136.968 345.681 137.512C345.281 138.048 344.717 138.484 343.989 138.82C343.269 139.156 342.429 139.324 341.469 139.324ZM363.126 139V132.208C363.126 131.272 362.902 130.568 362.454 130.096C362.006 129.616 361.41 129.376 360.666 129.376C360.066 129.376 359.538 129.544 359.082 129.88C358.626 130.208 358.27 130.696 358.014 131.344C357.766 131.992 357.642 132.788 357.642 133.732H356.766C356.766 132.268 356.95 131.044 357.318 130.06C357.686 129.076 358.21 128.336 358.89 127.84C359.578 127.336 360.394 127.084 361.338 127.084C362.282 127.084 363.074 127.296 363.714 127.72C364.362 128.144 364.85 128.74 365.178 129.508C365.506 130.276 365.67 131.176 365.67 132.208V139H363.126ZM355.086 139V127.408H357.306L357.642 129.808V139H355.086ZM373.991 139.324C372.935 139.324 371.987 139.096 371.147 138.64C370.307 138.184 369.639 137.504 369.143 136.6C368.647 135.696 368.399 134.568 368.399 133.216C368.399 131.84 368.647 130.7 369.143 129.796C369.639 128.892 370.307 128.216 371.147 127.768C371.987 127.312 372.935 127.084 373.991 127.084C375.031 127.084 375.971 127.312 376.811 127.768C377.651 128.216 378.315 128.892 378.803 129.796C379.299 130.7 379.547 131.84 379.547 133.216C379.547 134.568 379.299 135.696 378.803 136.6C378.315 137.504 377.651 138.184 376.811 138.64C375.971 139.096 375.031 139.324 373.991 139.324ZM373.907 137.092C374.523 137.092 375.059 136.944 375.515 136.648C375.979 136.344 376.339 135.904 376.595 135.328C376.851 134.752 376.979 134.048 376.979 133.216C376.979 131.944 376.723 130.972 376.211 130.3C375.707 129.628 374.995 129.292 374.075 129.292C373.459 129.292 372.919 129.444 372.455 129.748C371.991 130.044 371.631 130.484 371.375 131.068C371.119 131.644 370.991 132.36 370.991 133.216C370.991 134.464 371.247 135.424 371.759 136.096C372.279 136.76 372.995 137.092 373.907 137.092ZM386.448 139.324C385.776 139.324 385.164 139.2 384.612 138.952C384.068 138.696 383.632 138.312 383.304 137.8C382.976 137.28 382.812 136.628 382.812 135.844V124.288H385.368V135.76C385.368 136.784 385.852 137.296 386.82 137.296C387.108 137.296 387.396 137.264 387.684 137.2C387.972 137.136 388.3 137.036 388.668 136.9L389.04 138.7C388.6 138.876 388.172 139.024 387.756 139.144C387.34 139.264 386.904 139.324 386.448 139.324ZM381.12 129.112V127.408H388.668V129.112H381.12ZM75.108 170.324C74.436 170.324 73.824 170.2 73.272 169.952C72.728 169.696 72.292 169.312 71.964 168.8C71.636 168.28 71.472 167.628 71.472 166.844V155.288H74.028V166.76C74.028 167.784 74.512 168.296 75.48 168.296C75.768 168.296 76.056 168.264 76.344 168.2C76.632 168.136 76.96 168.036 77.328 167.9L77.7 169.7C77.26 169.876 76.832 170.024 76.416 170.144C76 170.264 75.564 170.324 75.108 170.324ZM69.78 160.112V158.408H77.328V160.112H69.78ZM88.3001 170V163.208C88.3001 162.272 88.0761 161.568 87.6281 161.096C87.1801 160.616 86.5841 160.376 85.8401 160.376C85.2401 160.376 84.7121 160.544 84.2561 160.88C83.8001 161.208 83.4441 161.696 83.1881 162.344C82.9401 162.992 82.8161 163.788 82.8161 164.732H81.9401C81.9401 163.268 82.1241 162.044 82.4921 161.06C82.8601 160.076 83.3841 159.336 84.0641 158.84C84.7521 158.336 85.5681 158.084 86.5121 158.084C87.4561 158.084 88.2481 158.296 88.8881 158.72C89.5361 159.144 90.0241 159.74 90.3521 160.508C90.6801 161.276 90.8441 162.176 90.8441 163.208V170H88.3001ZM80.2601 170V153.56H82.8161V170H80.2601ZM102.033 170L101.709 167.264V162.512C101.709 161.632 101.525 160.988 101.157 160.58C100.797 160.172 100.209 159.968 99.3926 159.968C98.9286 159.968 98.5166 160.036 98.1566 160.172C97.8046 160.308 97.5286 160.512 97.3286 160.784C97.1366 161.048 97.0406 161.376 97.0406 161.768H94.2326C94.2326 160.896 94.4406 160.192 94.8566 159.656C95.2806 159.112 95.8766 158.716 96.6446 158.468C97.4206 158.212 98.3366 158.084 99.3926 158.084C100.369 158.084 101.221 158.244 101.949 158.564C102.677 158.876 103.245 159.364 103.653 160.028C104.061 160.692 104.265 161.548 104.265 162.596V170H102.033ZM98.1926 170.324C97.2086 170.324 96.3886 170.152 95.7326 169.808C95.0846 169.464 94.5966 169.012 94.2686 168.452C93.9406 167.892 93.7766 167.292 93.7766 166.652C93.7766 165.9 93.9686 165.276 94.3526 164.78C94.7446 164.284 95.2886 163.916 95.9846 163.676C96.6886 163.428 97.5046 163.304 98.4326 163.304C99.0646 163.304 99.6646 163.356 100.233 163.46C100.809 163.564 101.381 163.7 101.949 163.868V165.392C101.493 165.232 100.993 165.108 100.449 165.02C99.9046 164.932 99.4006 164.888 98.9366 164.888C98.2326 164.888 97.6486 165.024 97.1846 165.296C96.7286 165.56 96.5006 166.012 96.5006 166.652C96.5006 167.116 96.6846 167.516 97.0526 167.852C97.4206 168.188 98.0046 168.356 98.8046 168.356C99.4046 168.356 99.9206 168.224 100.353 167.96C100.785 167.696 101.117 167.364 101.349 166.964C101.589 166.564 101.709 166.164 101.709 165.764H102.321C102.321 166.58 102.161 167.336 101.841 168.032C101.529 168.72 101.065 169.276 100.449 169.7C99.8326 170.116 99.0806 170.324 98.1926 170.324ZM111.973 170.324C111.301 170.324 110.689 170.2 110.137 169.952C109.593 169.696 109.157 169.312 108.829 168.8C108.501 168.28 108.337 167.628 108.337 166.844V155.288H110.893V166.76C110.893 167.784 111.377 168.296 112.345 168.296C112.633 168.296 112.921 168.264 113.209 168.2C113.497 168.136 113.825 168.036 114.193 167.9L114.565 169.7C114.125 169.876 113.697 170.024 113.281 170.144C112.865 170.264 112.429 170.324 111.973 170.324ZM106.645 160.112V158.408H114.193V160.112H106.645ZM127.075 175.988C125.787 175.988 124.679 175.808 123.751 175.448C122.831 175.096 122.123 174.624 121.627 174.032C121.131 173.448 120.883 172.812 120.883 172.124C120.883 171.284 121.191 170.636 121.807 170.18C122.423 169.724 123.203 169.496 124.147 169.496L125.923 170.228C125.115 170.228 124.491 170.384 124.051 170.696C123.611 171.016 123.391 171.452 123.391 172.004C123.391 172.58 123.715 173.048 124.363 173.408C125.011 173.768 125.915 173.948 127.075 173.948C127.931 173.948 128.671 173.82 129.295 173.564C129.927 173.316 130.415 172.992 130.759 172.592C131.111 172.192 131.287 171.764 131.287 171.308C131.287 171.004 131.179 170.748 130.963 170.54C130.755 170.332 130.431 170.228 129.991 170.228H125.923C125.139 170.228 124.435 170.104 123.811 169.856C123.195 169.608 122.707 169.276 122.347 168.86C121.987 168.444 121.807 167.984 121.807 167.48C121.807 166.992 121.943 166.576 122.215 166.232C122.487 165.88 122.851 165.612 123.307 165.428C123.771 165.236 124.283 165.14 124.843 165.14L125.455 166.004C125.223 166.004 124.995 166.052 124.771 166.148C124.547 166.244 124.363 166.388 124.219 166.58C124.083 166.764 124.015 166.996 124.015 167.276C124.015 167.612 124.155 167.888 124.435 168.104C124.715 168.312 125.211 168.416 125.923 168.416H129.991C131.183 168.416 132.119 168.644 132.799 169.1C133.479 169.556 133.819 170.24 133.819 171.152C133.819 171.96 133.547 172.732 133.003 173.468C132.459 174.212 131.683 174.816 130.675 175.28C129.667 175.752 128.467 175.988 127.075 175.988ZM127.279 166.472C126.367 166.472 125.539 166.3 124.795 165.956C124.051 165.604 123.455 165.116 123.007 164.492C122.567 163.86 122.347 163.124 122.347 162.284C122.347 161.436 122.567 160.696 123.007 160.064C123.455 159.432 124.051 158.944 124.795 158.6C125.539 158.256 126.367 158.084 127.279 158.084C128.167 158.084 128.979 158.256 129.715 158.6C130.459 158.944 131.055 159.432 131.503 160.064C131.959 160.696 132.187 161.436 132.187 162.284C132.187 163.124 131.959 163.86 131.503 164.492C131.055 165.116 130.459 165.604 129.715 165.956C128.979 166.3 128.167 166.472 127.279 166.472ZM127.291 164.684C128.067 164.684 128.655 164.456 129.055 164C129.463 163.536 129.667 162.964 129.667 162.284C129.667 161.564 129.463 160.984 129.055 160.544C128.655 160.104 128.063 159.884 127.279 159.884C126.519 159.884 125.927 160.104 125.503 160.544C125.087 160.984 124.879 161.564 124.879 162.284C124.879 162.964 125.087 163.536 125.503 164C125.927 164.456 126.523 164.684 127.291 164.684ZM131.299 159.944L130.123 159.308C130.123 158.62 130.275 158.016 130.579 157.496C130.883 156.976 131.299 156.572 131.827 156.284C132.355 155.996 132.947 155.852 133.603 155.852L133.459 158.324C132.763 158.324 132.227 158.456 131.851 158.72C131.483 158.984 131.299 159.392 131.299 159.944ZM140.662 170.324C139.606 170.324 138.658 170.096 137.818 169.64C136.978 169.184 136.31 168.504 135.814 167.6C135.318 166.696 135.07 165.568 135.07 164.216C135.07 162.84 135.318 161.7 135.814 160.796C136.31 159.892 136.978 159.216 137.818 158.768C138.658 158.312 139.606 158.084 140.662 158.084C141.702 158.084 142.642 158.312 143.482 158.768C144.322 159.216 144.986 159.892 145.474 160.796C145.97 161.7 146.218 162.84 146.218 164.216C146.218 165.568 145.97 166.696 145.474 167.6C144.986 168.504 144.322 169.184 143.482 169.64C142.642 170.096 141.702 170.324 140.662 170.324ZM140.578 168.092C141.194 168.092 141.73 167.944 142.186 167.648C142.65 167.344 143.01 166.904 143.266 166.328C143.522 165.752 143.65 165.048 143.65 164.216C143.65 162.944 143.394 161.972 142.882 161.3C142.378 160.628 141.666 160.292 140.746 160.292C140.13 160.292 139.59 160.444 139.126 160.748C138.662 161.044 138.302 161.484 138.046 162.068C137.79 162.644 137.662 163.36 137.662 164.216C137.662 165.464 137.918 166.424 138.43 167.096C138.95 167.76 139.666 168.092 140.578 168.092ZM153.755 170.324C152.699 170.324 151.751 170.096 150.911 169.64C150.071 169.184 149.403 168.504 148.907 167.6C148.411 166.696 148.163 165.568 148.163 164.216C148.163 162.84 148.411 161.7 148.907 160.796C149.403 159.892 150.071 159.216 150.911 158.768C151.751 158.312 152.699 158.084 153.755 158.084C154.795 158.084 155.735 158.312 156.575 158.768C157.415 159.216 158.079 159.892 158.567 160.796C159.063 161.7 159.311 162.84 159.311 164.216C159.311 165.568 159.063 166.696 158.567 167.6C158.079 168.504 157.415 169.184 156.575 169.64C155.735 170.096 154.795 170.324 153.755 170.324ZM153.671 168.092C154.287 168.092 154.823 167.944 155.279 167.648C155.743 167.344 156.103 166.904 156.359 166.328C156.615 165.752 156.743 165.048 156.743 164.216C156.743 162.944 156.487 161.972 155.975 161.3C155.471 160.628 154.759 160.292 153.839 160.292C153.223 160.292 152.683 160.444 152.219 160.748C151.755 161.044 151.395 161.484 151.139 162.068C150.883 162.644 150.755 163.36 150.755 164.216C150.755 165.464 151.011 166.424 151.523 167.096C152.043 167.76 152.759 168.092 153.671 168.092ZM166.632 170.324C165.672 170.324 164.792 170.068 163.992 169.556C163.2 169.044 162.568 168.328 162.096 167.408C161.624 166.48 161.388 165.392 161.388 164.144C161.388 162.912 161.616 161.844 162.072 160.94C162.528 160.028 163.14 159.324 163.908 158.828C164.676 158.332 165.528 158.084 166.464 158.084C167.32 158.084 168.064 158.292 168.696 158.708C169.328 159.116 169.812 159.72 170.148 160.52C170.492 161.312 170.664 162.284 170.664 163.436H169.824C169.824 162.78 169.692 162.228 169.428 161.78C169.164 161.324 168.82 160.976 168.396 160.736C167.972 160.496 167.512 160.376 167.016 160.376C166.432 160.376 165.908 160.532 165.444 160.844C164.988 161.156 164.628 161.596 164.364 162.164C164.1 162.724 163.968 163.384 163.968 164.144C163.968 164.928 164.1 165.612 164.364 166.196C164.636 166.772 165 167.22 165.456 167.54C165.912 167.852 166.428 168.008 167.004 168.008C167.476 168.008 167.924 167.884 168.348 167.636C168.78 167.38 169.132 167.02 169.404 166.556C169.684 166.092 169.824 165.544 169.824 164.912H170.664C170.664 166.104 170.48 167.104 170.112 167.912C169.752 168.712 169.268 169.316 168.66 169.724C168.052 170.124 167.376 170.324 166.632 170.324ZM170.292 170L169.824 167.18V153.56H172.404V170H170.292ZM174.958 168.5C174.958 168.004 175.126 167.588 175.462 167.252C175.806 166.908 176.238 166.736 176.758 166.736C177.286 166.736 177.726 166.908 178.078 167.252C178.438 167.588 178.618 168.004 178.618 168.5C178.618 168.988 178.438 169.396 178.078 169.724C177.726 170.052 177.286 170.216 176.758 170.216C176.238 170.216 175.806 170.052 175.462 169.724C175.126 169.388 174.958 168.98 174.958 168.5ZM186.204 160.628L184.416 159.632C184.92 159.384 185.364 159.096 185.748 158.768C186.132 158.44 186.388 158.06 186.516 157.628C186.076 157.564 185.712 157.404 185.424 157.148C185.136 156.884 184.992 156.54 184.992 156.116C184.992 155.66 185.164 155.284 185.508 154.988C185.852 154.684 186.28 154.532 186.792 154.532C187.224 154.532 187.592 154.644 187.896 154.868C188.208 155.084 188.444 155.372 188.604 155.732C188.764 156.092 188.844 156.488 188.844 156.92C188.844 157.656 188.604 158.352 188.124 159.008C187.644 159.664 187.004 160.204 186.204 160.628ZM181.536 160.628L179.748 159.632C180.252 159.384 180.696 159.096 181.08 158.768C181.464 158.44 181.72 158.06 181.848 157.628C181.408 157.564 181.044 157.404 180.756 157.148C180.468 156.884 180.324 156.54 180.324 156.116C180.324 155.66 180.496 155.284 180.84 154.988C181.184 154.684 181.612 154.532 182.124 154.532C182.556 154.532 182.924 154.644 183.228 154.868C183.54 155.084 183.776 155.372 183.936 155.732C184.096 156.092 184.176 156.488 184.176 156.92C184.176 157.656 183.936 158.352 183.456 159.008C182.976 159.664 182.336 160.204 181.536 160.628Z" fill="#1C1C1C"/>
<path d="M57.918 96.146C57.424 96.146 56.9907 96.016 56.618 95.756C56.2453 95.496 55.955 95.1537 55.747 94.729C55.5477 94.3043 55.448 93.8407 55.448 93.338C55.448 92.4887 55.734 91.6783 56.306 90.907C56.878 90.1357 57.6233 89.516 58.542 89.048L60.674 90.244C60.102 90.5127 59.5993 90.8333 59.166 91.206C58.7327 91.5787 58.4293 92.012 58.256 92.506C58.75 92.5753 59.166 92.7617 59.504 93.065C59.8507 93.3597 60.024 93.754 60.024 94.248C60.024 94.768 59.8247 95.2143 59.426 95.587C59.036 95.9597 58.5333 96.146 57.918 96.146ZM52.406 96.146C51.912 96.146 51.4787 96.016 51.106 95.756C50.7333 95.496 50.443 95.1537 50.235 94.729C50.0357 94.3043 49.936 93.8407 49.936 93.338C49.936 92.4887 50.222 91.6783 50.794 90.907C51.366 90.1357 52.1113 89.516 53.03 89.048L55.162 90.244C54.59 90.5127 54.0873 90.8333 53.654 91.206C53.2207 91.5787 52.9173 92.012 52.744 92.506C53.238 92.5753 53.654 92.7617 53.992 93.065C54.3387 93.3597 54.512 93.754 54.512 94.248C54.512 94.768 54.3127 95.2143 53.914 95.587C53.524 95.9597 53.0213 96.146 52.406 96.146Z" fill="#1C1C1C"/>
</svg>
